<svg width="279" height="31" viewBox="0 0 279 31" fill="none" xmlns="http://www.w3.org/2000/svg">
<mask id="path-1-outside-1_1_10" maskUnits="userSpaceOnUse" x="0.0767822" y="0.38205" width="279" height="31" fill="black">
<rect fill="white" x="0.0767822" y="0.38205" width="279" height="31"/>
<path d="M7.95518 2.5152C8.47145 2.5152 8.84692 2.57386 9.08158 2.6912C9.33972 2.78506 9.53918 2.96106 9.67998 3.2192C9.91465 3.712 10.208 4.3456 10.56 5.12L11.8624 7.936L13.5168 11.5616C13.8218 12.2187 14.2208 13.0869 14.7136 14.1664C15.2064 15.2459 15.5584 15.9968 15.7696 16.4192C16.1685 17.2405 16.4266 17.7451 16.544 17.9328L17.5296 19.8688L18.6208 22.016L18.5504 19.9744L18.4096 16.5248V15.4688C18.4096 14.1781 18.4331 12.8757 18.48 11.5616C18.48 10.576 18.4683 9.77813 18.4448 9.168L18.4096 6.4928L18.5504 3.1136C18.5504 2.7616 18.7264 2.5856 19.0784 2.5856C19.1957 2.5856 19.4304 2.6208 19.7824 2.6912C19.9936 2.73813 20.2165 2.7616 20.4512 2.7616C20.6859 2.7616 20.8736 2.7616 21.0144 2.7616C21.2021 2.7616 21.3195 2.78506 21.3664 2.832C21.4368 2.87893 21.472 2.96106 21.472 3.0784C21.472 3.17226 21.4603 3.27786 21.4368 3.3952C21.4133 3.51253 21.4016 3.6416 21.4016 3.7824L21.3664 6.8096L21.296 13.92L21.2608 14.9408C21.2608 15.7387 21.2725 16.4661 21.296 17.1232C21.3195 17.7803 21.3429 18.32 21.3664 18.7424C21.4368 19.7515 21.472 20.5963 21.472 21.2768C21.472 21.1829 21.5072 22.5792 21.5776 25.4656L21.648 27.4368V27.5072C21.648 27.9765 21.425 28.1877 20.9792 28.1408C20.9088 28.1173 20.768 28.1056 20.5568 28.1056L19.536 28.1408H19.3248C19.1605 28.1408 19.0315 28.1056 18.9376 28.0352C18.8672 27.9648 18.7381 27.7653 18.5504 27.4368C18.48 27.2725 18.3861 27.0379 18.2688 26.7328C18.1515 26.4277 18.0106 26.0875 17.8464 25.712C16.8373 23.1776 16.1098 21.4528 15.664 20.5376C15.1477 19.552 13.8453 16.7243 11.7568 12.0544C11.2874 11.0923 10.7594 10.0715 10.1728 8.992L9.15198 7.1616L9.25758 10.5056L9.29278 12.5824C9.33972 14.1312 9.36318 15.152 9.36318 15.6448C9.36318 17.5691 9.39838 19.5051 9.46878 21.4528L9.50398 24.1984C9.50398 24.6912 9.52745 25.4069 9.57438 26.3456L9.64478 27.5776V27.648C9.64478 27.8827 9.58612 28.0352 9.46878 28.1056C9.35145 28.176 9.18718 28.2112 8.97598 28.2112L8.20158 28.2464C7.70878 28.3168 7.18078 28.352 6.61758 28.352C5.96052 28.352 5.42078 28.3637 4.99838 28.3872L3.20318 28.4224C2.85118 28.4224 2.61652 28.352 2.49918 28.2112C2.38185 28.0939 2.31145 27.9531 2.28798 27.7888C2.26452 27.6245 2.24105 27.5072 2.21758 27.4368C2.12372 27.0144 2.07678 26.4981 2.07678 25.888C2.07678 25.3248 2.08852 24.8437 2.11198 24.4448C2.11198 23.2245 2.13545 21.8048 2.18238 20.1856C2.22932 18.5429 2.28798 17.3696 2.35838 16.6656L2.53438 14.1664C2.81598 10.2709 2.95678 8.0768 2.95678 7.584C2.95678 5.73013 2.99198 4.3456 3.06238 3.4304C3.10932 2.7968 3.43785 2.48 4.04798 2.48C4.23572 2.48 4.41172 2.49173 4.57598 2.5152C4.74025 2.53866 4.86932 2.5504 4.96318 2.5504L7.95518 2.5152Z"/>
<path d="M41.1411 27.5072C41.2115 27.6715 41.2467 27.7888 41.2467 27.8592C41.2467 27.9531 41.1176 28 40.8595 28H38.8883C38.7944 28 38.7123 27.9883 38.6419 27.9648C38.595 27.9179 38.548 27.824 38.5011 27.6832C38.4072 27.4251 38.2781 27.0027 38.1139 26.416C37.9027 25.8293 37.7619 25.3013 37.6915 24.832C37.6211 24.48 37.5037 24.0576 37.3395 23.5648C37.1987 23.072 37.0696 22.6965 36.9523 22.4384C36.7411 21.9925 36.5533 21.488 36.3891 20.9248L36.0723 19.904C35.9549 19.6459 35.8611 19.4933 35.7907 19.4464C35.7438 19.376 35.6499 19.3408 35.5091 19.3408C35.0163 19.3408 34.6525 19.3525 34.4179 19.376L32.9043 19.4464C32.7166 19.4699 31.8483 19.4816 30.2995 19.4816H28.1523H28.0819C27.9411 19.4816 27.8355 19.6107 27.7651 19.8688L27.6947 20.2208L27.5539 20.8896C27.507 21.0069 27.3544 21.6875 27.0963 22.9312C27.0259 23.3301 26.9086 23.8464 26.7443 24.48C26.6974 24.9493 26.5917 25.3365 26.4275 25.6416C26.3805 25.712 26.3219 25.8763 26.2515 26.1344C26.1811 26.3925 26.1224 26.6037 26.0755 26.768C26.0051 26.9557 25.9229 27.2608 25.8291 27.6832C25.8056 27.7067 25.7822 27.7653 25.7587 27.8592C25.7352 27.9296 25.7 27.9765 25.6531 28C25.6062 28 25.5357 28 25.4419 28H24.7379C24.5267 28 24.468 27.8475 24.5619 27.5424C24.5619 27.472 24.5736 27.4133 24.5971 27.3664C24.5971 27.3195 24.6088 27.2608 24.6323 27.1904C24.6558 27.12 24.6909 27.0144 24.7379 26.8736L25.0547 25.5712C25.1016 25.4304 25.1837 25.184 25.3011 24.832C25.4184 24.48 25.5006 24.1515 25.5475 23.8464C25.6648 23.2832 25.8878 22.4267 26.2163 21.2768L26.4979 20.2912C26.9437 18.8363 27.2254 17.8155 27.3427 17.2288L27.8355 15.3632C28.0702 14.5888 28.2109 14.096 28.2579 13.8848C28.4221 13.1808 28.6568 12.3008 28.9619 11.2448L29.2083 10.2592L29.4195 9.52C29.6541 8.72213 29.8536 8.1472 30.0179 7.7952C30.0648 7.6544 30.2291 7.17333 30.5107 6.352C30.8157 5.5072 31.0152 4.8384 31.1091 4.3456C31.2733 3.7824 31.4376 3.36 31.6019 3.0784C31.7896 2.7968 32.036 2.656 32.3411 2.656C32.4584 2.656 32.5757 2.7616 32.6931 2.9728C32.8104 3.184 32.9278 3.44213 33.0451 3.7472C33.1624 4.05226 33.2445 4.2752 33.2915 4.416C33.4792 4.86186 33.8077 5.97653 34.2771 7.76L34.5587 8.7456C34.5821 8.93333 34.9694 10.0832 35.7203 12.1952L36.3891 14.1312L37.0227 15.7856C37.6797 17.6395 38.1021 18.7659 38.2899 19.1648C39.1112 21.6523 39.5923 23.1541 39.7331 23.6704C39.8973 24.2805 40.1555 25.0432 40.5075 25.9584C40.8829 26.8736 41.0941 27.3899 41.1411 27.5072ZM34.5587 17.0528C34.8637 17.0528 35.0163 16.9707 35.0163 16.8064C35.0163 16.6891 34.9341 16.4309 34.7699 16.032C34.6291 15.68 34.4179 15.0229 34.1363 14.0608C33.9251 13.2864 33.7139 12.6176 33.5027 12.0544C33.268 11.3504 33.0099 10.5173 32.7283 9.5552C32.4702 8.59306 32.3176 7.9712 32.2707 7.6896C31.9187 6.44586 31.684 5.824 31.5667 5.824C31.4963 5.824 31.379 6.1408 31.2147 6.7744L31.0035 7.5488C30.8392 8.1824 30.628 8.98026 30.3699 9.9424C30.1118 10.8811 29.8771 11.6789 29.6659 12.336C29.5251 12.9461 29.3256 13.7205 29.0675 14.6592C28.8328 15.5744 28.6451 16.208 28.5043 16.56C28.4574 16.7008 28.4339 16.7829 28.4339 16.8064C28.4339 16.9707 28.5043 17.0763 28.6451 17.1232C28.8094 17.1701 28.9619 17.1936 29.1027 17.1936C29.267 17.1701 29.3725 17.1584 29.4195 17.1584L31.4611 17.088C31.7427 17.0411 32.1416 17.0176 32.6579 17.0176L34.5587 17.0528Z"/>
<path d="M51.3081 3.184C53.3497 3.184 54.8633 3.58293 55.8489 4.3808C56.8345 5.17866 57.3508 5.60106 57.3977 5.648C57.6324 5.81226 57.7497 5.97653 57.7497 6.1408C57.7497 6.23466 57.7028 6.32853 57.6089 6.4224C57.5385 6.51626 57.3977 6.71573 57.1865 7.0208C56.9753 7.32586 56.811 7.4784 56.6937 7.4784C56.5764 7.4784 56.4238 7.41973 56.2361 7.3024L55.9897 7.0912C54.2062 5.80053 52.6809 5.1552 51.4137 5.1552C49.7945 5.1552 48.5625 5.53066 47.7177 6.2816C46.8964 7.00906 46.4857 7.936 46.4857 9.0624C46.4857 10.0245 46.826 10.8459 47.5065 11.5264C48.2105 12.2069 49.1257 12.8523 50.2521 13.4624C50.5806 13.6032 50.9209 13.7323 51.2729 13.8496C52.4462 14.2955 53.467 14.7765 54.3353 15.2928C55.227 15.7856 56.0249 16.5483 56.7289 17.5808C57.4329 18.5899 57.7849 19.8688 57.7849 21.4176C57.7849 24.0693 56.8814 25.888 55.0745 26.8736C53.2676 27.8357 51.2494 28.3168 49.0201 28.3168C47.7294 28.3168 46.5561 28.0235 45.5001 27.4368C44.4676 26.8501 43.7284 26.3339 43.2825 25.888C43.0478 25.6768 42.9892 25.4656 43.1065 25.2544C43.13 25.2075 43.2238 25.0197 43.3881 24.6912C43.5758 24.3627 43.7401 24.1984 43.8809 24.1984H43.9513C44.0217 24.1984 44.0804 24.2219 44.1273 24.2688C44.1977 24.2923 44.2681 24.3509 44.3385 24.4448C44.4324 24.5387 44.538 24.6443 44.6553 24.7616C44.9604 25.0667 45.5588 25.4187 46.4505 25.8176C47.3422 26.1931 48.0814 26.3808 48.6681 26.3808C49.9118 26.3808 51.0969 26.1227 52.2233 25.6064C53.3497 25.0667 53.9129 23.9403 53.9129 22.2272C53.9129 21.4997 53.5844 20.8661 52.9273 20.3264C52.2937 19.7867 51.2964 19.1531 49.9353 18.4256L48.4217 17.5808C46.779 16.6421 45.4884 15.6331 44.5497 14.5536C43.6345 13.4741 43.1769 12.0544 43.1769 10.2944C43.1769 8.83947 43.5876 7.57227 44.4089 6.4928C45.2537 5.41333 46.298 4.592 47.5417 4.0288C48.8089 3.4656 50.0644 3.184 51.3081 3.184Z"/>
<path d="M76.2976 4.9792C76.2976 5.51893 76.2507 5.7888 76.1568 5.7888C76.016 5.7888 75.8518 5.77706 75.664 5.7536C75.4998 5.70666 75.2886 5.6832 75.0304 5.6832H69.3984L65.0336 5.648C64.8928 5.648 64.3648 5.6832 63.4496 5.7536L62.64 5.824L62.5696 6.7744C62.5462 7.1264 62.5344 7.67786 62.5344 8.4288C62.5344 8.80426 62.5579 9.29707 62.6048 9.9072C62.6518 10.4704 62.6752 10.8811 62.6752 11.1392V12.5472C62.6752 12.9227 62.687 13.216 62.7104 13.4272C62.9216 13.4507 63.2384 13.4624 63.6608 13.4624H65.0688C65.2096 13.4624 65.4912 13.4389 65.9136 13.392C66.5238 13.3451 67.0518 13.3216 67.4976 13.3216C67.6854 13.3216 68.3424 13.3568 69.4688 13.4272L70.2432 13.4624C70.431 13.4624 70.7008 13.4507 71.0528 13.4272C71.4048 13.3803 71.7451 13.3568 72.0736 13.3568L73.2352 13.392C73.8454 13.4389 74.2678 13.4624 74.5024 13.4624C74.7606 13.4624 74.9366 13.4507 75.0304 13.4272L75.2416 13.392C75.4059 13.392 75.5232 13.4507 75.5936 13.568C75.664 13.6619 75.6875 13.7557 75.664 13.8496C75.6406 14.0139 75.6288 14.2251 75.6288 14.4832C75.6288 14.7179 75.6171 14.9291 75.5936 15.1168C75.5702 15.3045 75.535 15.4219 75.488 15.4688C75.4411 15.4923 75.3003 15.504 75.0656 15.504L73.6576 15.3632C71.8976 15.1989 70.7478 15.1168 70.208 15.1168C68.2134 15.1168 66.7467 15.152 65.808 15.2224C65.4326 15.2693 65.0219 15.2928 64.576 15.2928C64.1302 15.2928 63.8486 15.2928 63.7312 15.2928C63.2854 15.2928 62.9568 15.2811 62.7456 15.2576L62.64 15.8208C62.5931 16.2432 62.5696 16.6187 62.5696 16.9472C62.5696 17.2288 62.5931 17.5573 62.64 17.9328C62.687 18.3083 62.7104 18.6368 62.7104 18.9184L62.7456 23.1072L62.7104 24.8672C62.687 25.0784 62.6752 25.3717 62.6752 25.7472C62.9803 25.7707 63.4262 25.7824 64.0128 25.7824C64.5056 25.8059 65.2683 25.8176 66.3008 25.8176L68.2016 25.8528C68.6006 25.8763 69.2107 25.888 70.032 25.888C70.5248 25.888 71.1702 25.8645 71.968 25.8176L73.4464 25.7824C74.0096 25.7824 74.479 25.7941 74.8544 25.8176C75.2299 25.8411 75.5115 25.8528 75.6992 25.8528C75.887 25.8528 75.9926 25.888 76.016 25.9584C76.063 26.0288 76.0864 26.1813 76.0864 26.416C76.0864 26.5803 76.0747 26.7563 76.0512 26.944C76.0278 27.1083 76.016 27.296 76.016 27.5072C76.016 27.6715 75.9574 27.7888 75.84 27.8592C75.7227 27.9061 75.535 27.9296 75.2768 27.9296C75.0187 27.9296 74.8075 27.9179 74.6432 27.8944C74.0096 27.824 72.7307 27.7888 70.8064 27.7888C69.6331 27.7888 68.7883 27.8005 68.272 27.824C67.8731 27.8475 67.216 27.8592 66.3008 27.8592L63.0272 27.824C62.6518 27.8005 62.2059 27.7888 61.6896 27.7888C61.3611 27.7888 61.1382 27.7536 61.0208 27.6832C60.927 27.5893 60.88 27.4485 60.88 27.2608L60.9152 26.6976C60.9387 26.6037 60.9504 26.4981 60.9504 26.3808C60.9504 26.3104 60.9387 26.1461 60.9152 25.888C60.8918 25.6064 60.88 25.1019 60.88 24.3744C60.88 23.6704 60.8566 22.5205 60.8096 20.9248C60.7392 19.6107 60.704 18.3435 60.704 17.1232C60.704 16.6069 60.7627 15.1168 60.88 12.6528C60.9035 12.16 60.927 11.6672 60.9504 11.1744C60.9739 10.6816 60.9856 10.2357 60.9856 9.8368C60.9856 7.11466 60.9504 5.31946 60.88 4.4512C60.8096 3.888 61.1499 3.6064 61.9008 3.6064C62.0886 3.6064 62.3936 3.62986 62.816 3.6768C63.1915 3.72373 63.4731 3.7472 63.6608 3.7472L65.8784 3.6768C67.4742 3.58293 68.7062 3.536 69.5744 3.536C70.5835 3.536 72.0032 3.55946 73.8336 3.6064C74.4203 3.62986 75.0422 3.6416 75.6992 3.6416C75.9808 3.6416 76.1568 3.712 76.2272 3.8528C76.2976 3.9936 76.3211 4.14613 76.2976 4.3104C76.2976 4.4512 76.2976 4.54506 76.2976 4.592V4.9792Z"/>
<path d="M95.2614 27.0144C95.5899 27.5307 95.7542 27.8709 95.7542 28.0352C95.7542 28.1291 95.6955 28.1877 95.5782 28.2112C95.4608 28.2347 95.3552 28.2464 95.2614 28.2464C95.191 28.2464 95.1323 28.2464 95.0854 28.2464L91.1078 28.352C90.92 28.352 90.7675 28.2699 90.6502 28.1056C90.5563 27.9413 90.4155 27.648 90.2278 27.2256C90.1104 26.8736 89.8992 26.4043 89.5942 25.8176C89.1248 24.9728 88.3152 23.3888 87.1654 21.0656L85.3702 17.5808L85.4758 19.4464L85.6518 22.1216C85.7926 25.2661 85.9099 27.0027 86.0038 27.3312C86.0272 27.4251 86.039 27.5424 86.039 27.6832C86.039 28.1056 85.816 28.3168 85.3702 28.3168C85.2294 28.3168 85.112 28.3051 85.0182 28.2816C84.6427 28.2347 83.7275 28.2816 82.2726 28.4224C81.287 28.5163 80.6886 28.5632 80.4774 28.5632C80.1723 28.5632 79.9611 28.5045 79.8438 28.3872C79.7499 28.2699 79.703 28.0704 79.703 27.7888L79.7382 26.9792L79.6678 24.9376C79.527 22.4971 79.4566 20.3733 79.4566 18.5664C79.4566 17.6277 79.4918 16.9824 79.5622 16.6304C79.6795 16.0437 79.7382 14.3893 79.7382 11.6672C79.7382 8.82773 79.6912 6.68053 79.5974 5.2256C79.5739 5.03786 79.5622 4.77973 79.5622 4.4512C79.5622 4.07573 79.5974 3.80586 79.6678 3.6416C79.7382 3.47733 79.8086 3.3952 79.879 3.3952C79.9728 3.37173 80.1254 3.36 80.3366 3.36L81.111 3.2896C82.7302 3.10186 84.0208 3.008 84.983 3.008C87.6112 3.008 89.5824 3.68853 90.8966 5.0496C92.2342 6.3872 92.903 8.13546 92.903 10.2944C92.903 12.0075 92.3515 13.6501 91.2486 15.2224C90.7792 15.9029 90.2395 16.5131 89.6294 17.0528L92.0934 21.5232C93.9003 24.7616 94.9563 26.592 95.2614 27.0144ZM85.159 12.8992C85.511 12.8992 85.8278 12.8288 86.1094 12.688C86.7664 12.3829 87.095 11.7611 87.095 10.8224C87.095 10.1419 86.9894 9.63733 86.7782 9.3088C86.567 8.98026 86.2971 8.816 85.9686 8.816C85.7104 8.816 85.4875 8.90987 85.2998 9.0976C85.2763 9.12107 85.2763 9.28533 85.2998 9.5904C85.3232 9.89546 85.335 10.2005 85.335 10.5056C85.335 10.7637 85.3232 10.9515 85.2998 11.0688C85.2059 11.4677 85.159 11.8784 85.159 12.3008L85.1238 12.6176L85.159 12.8992Z"/>
<path d="M124.466 27.5072C124.536 27.6715 124.572 27.7888 124.572 27.8592C124.572 27.9531 124.443 28 124.184 28H122.213C122.119 28 122.037 27.9883 121.967 27.9648C121.92 27.9179 121.873 27.824 121.826 27.6832C121.732 27.4251 121.603 27.0027 121.439 26.416C121.228 25.8293 121.087 25.3013 121.016 24.832C120.946 24.48 120.829 24.0576 120.664 23.5648C120.524 23.072 120.395 22.6965 120.277 22.4384C120.066 21.9925 119.878 21.488 119.714 20.9248L119.397 19.904C119.28 19.6459 119.186 19.4933 119.116 19.4464C119.069 19.376 118.975 19.3408 118.834 19.3408C118.341 19.3408 117.978 19.3525 117.743 19.376L116.229 19.4464C116.042 19.4699 115.173 19.4816 113.624 19.4816H111.477H111.407C111.266 19.4816 111.16 19.6107 111.09 19.8688L111.02 20.2208L110.879 20.8896C110.832 21.0069 110.679 21.6875 110.421 22.9312C110.351 23.3301 110.234 23.8464 110.069 24.48C110.022 24.9493 109.917 25.3365 109.752 25.6416C109.706 25.712 109.647 25.8763 109.576 26.1344C109.506 26.3925 109.447 26.6037 109.4 26.768C109.33 26.9557 109.248 27.2608 109.154 27.6832C109.131 27.7067 109.107 27.7653 109.084 27.8592C109.06 27.9296 109.025 27.9765 108.978 28C108.931 28 108.861 28 108.767 28H108.063C107.852 28 107.793 27.8475 107.887 27.5424C107.887 27.472 107.899 27.4133 107.922 27.3664C107.922 27.3195 107.934 27.2608 107.957 27.1904C107.981 27.12 108.016 27.0144 108.063 26.8736L108.38 25.5712C108.427 25.4304 108.509 25.184 108.626 24.832C108.743 24.48 108.826 24.1515 108.872 23.8464C108.99 23.2832 109.213 22.4267 109.541 21.2768L109.823 20.2912C110.269 18.8363 110.55 17.8155 110.668 17.2288L111.16 15.3632C111.395 14.5888 111.536 14.096 111.583 13.8848C111.747 13.1808 111.982 12.3008 112.287 11.2448L112.533 10.2592L112.744 9.52C112.979 8.72213 113.179 8.1472 113.343 7.7952C113.39 7.6544 113.554 7.17333 113.836 6.352C114.141 5.5072 114.34 4.8384 114.434 4.3456C114.598 3.7824 114.763 3.36 114.927 3.0784C115.115 2.7968 115.361 2.656 115.666 2.656C115.783 2.656 115.901 2.7616 116.018 2.9728C116.135 3.184 116.253 3.44213 116.37 3.7472C116.487 4.05226 116.57 4.2752 116.616 4.416C116.804 4.86186 117.133 5.97653 117.602 7.76L117.884 8.7456C117.907 8.93333 118.294 10.0832 119.045 12.1952L119.714 14.1312L120.348 15.7856C121.005 17.6395 121.427 18.7659 121.615 19.1648C122.436 21.6523 122.917 23.1541 123.058 23.6704C123.222 24.2805 123.48 25.0432 123.832 25.9584C124.208 26.8736 124.419 27.3899 124.466 27.5072ZM117.884 17.0528C118.189 17.0528 118.341 16.9707 118.341 16.8064C118.341 16.6891 118.259 16.4309 118.095 16.032C117.954 15.68 117.743 15.0229 117.461 14.0608C117.25 13.2864 117.039 12.6176 116.828 12.0544C116.593 11.3504 116.335 10.5173 116.053 9.5552C115.795 8.59306 115.643 7.9712 115.596 7.6896C115.244 6.44586 115.009 5.824 114.892 5.824C114.821 5.824 114.704 6.1408 114.54 6.7744L114.328 7.5488C114.164 8.1824 113.953 8.98026 113.695 9.9424C113.437 10.8811 113.202 11.6789 112.991 12.336C112.85 12.9461 112.651 13.7205 112.392 14.6592C112.158 15.5744 111.97 16.208 111.829 16.56C111.782 16.7008 111.759 16.7829 111.759 16.8064C111.759 16.9707 111.829 17.0763 111.97 17.1232C112.134 17.1701 112.287 17.1936 112.428 17.1936C112.592 17.1701 112.698 17.1584 112.744 17.1584L114.786 17.088C115.068 17.0411 115.467 17.0176 115.983 17.0176L117.884 17.0528Z"/>
<path d="M130.163 5.6832C130.045 8.96853 129.987 10.752 129.987 11.0336L129.952 16.0672C129.952 16.5131 129.963 16.9003 129.987 17.2288L130.022 19.3408C130.022 19.8336 130.01 20.1387 129.987 20.256C129.963 20.3968 129.952 20.5259 129.952 20.6432C129.975 20.7605 129.987 20.8427 129.987 20.8896C129.987 20.9835 129.998 21.0421 130.022 21.0656L130.867 21.136C131.618 21.1829 132.24 21.1947 132.732 21.1712L139.244 21.1008C139.244 21.1008 140.476 21.136 142.94 21.2064L144.595 21.2416C144.853 21.2651 144.982 21.3355 144.982 21.4528C144.982 21.4997 144.97 21.5584 144.947 21.6288C144.923 21.6992 144.912 21.7696 144.912 21.84V23.4592C144.912 23.8816 144.982 24.7733 145.123 26.1344L145.264 27.6128L145.299 27.7888C145.299 27.9061 145.24 27.9765 145.123 28C145.005 28.0469 144.794 28.0704 144.489 28.0704L141.92 28.0352L137.555 27.9648C136.968 27.9648 136.147 28 135.091 28.0704C134.621 28.0939 134.093 28.1173 133.507 28.1408C132.944 28.1643 132.38 28.176 131.817 28.176L131.219 28.1408C131.078 28.1173 130.808 28.1056 130.409 28.1056L128.825 28.1408C128.544 28.1643 128.18 28.176 127.734 28.176C127.429 28.176 127.241 28.1291 127.171 28.0352C127.124 27.9648 127.1 27.8475 127.1 27.6832C127.124 27.5189 127.136 27.3781 127.136 27.2608C127.136 26.7445 127.171 25.8528 127.241 24.5856L127.347 20.96L127.276 19.3056C127.253 18.9771 127.229 18.5899 127.206 18.144C127.182 17.6747 127.171 17.1936 127.171 16.7008C127.171 17.4987 127.241 16.7008 127.382 14.3072C127.523 11.8901 127.593 10.4 127.593 9.8368L127.558 5.8592L127.488 3.6064V3.5712C127.488 3.38346 127.617 3.2896 127.875 3.2896L128.368 3.3248C128.485 3.3248 128.637 3.33653 128.825 3.36C129.013 3.36 129.306 3.36 129.705 3.36H130.022C130.163 3.36 130.233 3.45386 130.233 3.6416L130.163 5.6832Z"/>
<path d="M151.92 5.0496C152.037 5.6832 152.307 6.5632 152.729 7.6896C153.175 8.816 153.598 9.8016 153.997 10.6464C154.325 11.2096 154.759 12.1248 155.299 13.392C155.862 14.6357 156.261 15.6213 156.496 16.3488C156.637 16.7243 156.836 17.1936 157.094 17.7568L157.622 19.024L158.361 20.6784C159.042 19.3408 159.535 18.3669 159.84 17.7568L162.128 13.1808L163.712 10.0128C164.533 8.3232 165.085 7.232 165.366 6.7392C165.812 5.824 166.281 4.9792 166.774 4.2048C167.267 3.40693 167.619 3.008 167.83 3.008C168.018 3.008 168.112 3.16053 168.112 3.4656C168.112 3.7472 168.053 4.12266 167.936 4.592L167.795 5.472C167.701 6.1056 167.654 8.9216 167.654 13.92C167.654 15.0229 167.619 16.3605 167.549 17.9328C167.502 19.5051 167.455 20.5493 167.408 21.0656C167.361 21.6757 167.337 22.5792 167.337 23.776L167.373 27.1904V27.3664C167.373 27.648 167.302 27.7653 167.161 27.7184H167.091C166.974 27.7184 166.833 27.7301 166.669 27.7536C166.528 27.7771 166.375 27.7888 166.211 27.7888C166.117 27.7653 166.047 27.7067 166 27.6128C165.976 27.5189 165.965 27.3547 165.965 27.12V25.0432C165.965 22.6496 165.988 21.2416 166.035 20.8192C166.082 20.3264 166.129 19.4112 166.176 18.0736C166.246 16.736 166.281 15.6565 166.281 14.8352C166.258 14.624 166.27 13.9669 166.317 12.864L166.352 11.5968L166.422 9.0624C166.258 9.29706 166.117 9.54346 166 9.8016C165.765 10.2005 165.542 10.6347 165.331 11.104L164.979 11.808C164.58 12.5824 164.123 13.4976 163.606 14.5536C163.09 15.5861 162.644 16.4661 162.269 17.1936C161.846 18.0384 161.307 19.1296 160.649 20.4672C160.016 21.7813 159.523 22.8256 159.171 23.6C158.561 25.0315 158.209 25.7472 158.115 25.7472C158.045 25.7472 157.939 25.6299 157.798 25.3952C157.657 25.1605 157.564 25.008 157.517 24.9376C157.352 24.6795 157.094 24.1397 156.742 23.3184C156.39 22.4736 156.109 21.7344 155.897 21.1008C155.757 20.6784 155.147 19.4933 154.067 17.5456C153.222 15.9264 152.788 15.0816 152.765 15.0112C152.53 14.5419 152.213 13.7557 151.814 12.6528C151.556 12.0661 151.357 11.5499 151.216 11.104L151.145 12.6528L151.075 15.0464L151.005 21.9808L150.969 27.472C150.969 27.6832 150.911 27.8123 150.793 27.8592C150.676 27.9061 150.535 27.9296 150.371 27.9296C150.207 27.9061 150.078 27.8944 149.984 27.8944L149.209 27.9296C148.787 27.9765 148.482 28 148.294 28C147.942 28 147.731 27.9296 147.661 27.7888C147.614 27.6245 147.602 27.296 147.625 26.8032C147.625 26.0288 147.614 25.2896 147.59 24.5856L147.52 20.256C147.52 19.5989 147.543 18.9184 147.59 18.2144C147.637 17.4869 147.672 16.8416 147.696 16.2784C147.813 14.5888 147.872 13.4037 147.872 12.7232L147.942 6.1056L147.907 4.2048C147.907 3.38346 147.966 2.91413 148.083 2.7968C148.153 2.7264 148.236 2.6912 148.329 2.6912C148.4 2.6912 148.505 2.71466 148.646 2.7616C148.787 2.80853 148.963 2.82026 149.174 2.7968C149.385 2.77333 149.679 2.7616 150.054 2.7616C150.5 2.7616 150.829 2.78506 151.04 2.832C151.251 2.9024 151.404 3.0784 151.497 3.36C151.591 3.61813 151.673 3.9232 151.744 4.2752C151.814 4.60373 151.873 4.86186 151.92 5.0496Z"/>
<path d="M179.168 17.5104C179.168 18.0267 179.192 18.4725 179.239 18.848C179.309 19.2235 179.485 19.5872 179.767 19.9392C180.072 20.2677 180.553 20.432 181.21 20.432C182.125 20.432 182.747 20.0917 183.075 19.4112C183.404 18.7072 183.568 17.9445 183.568 17.1232L183.603 15.3632C183.674 12.7584 183.709 11.3035 183.709 10.9984C183.709 10.3413 183.697 9.89546 183.674 9.6608C183.674 8.83946 183.627 7.584 183.533 5.8944L183.463 3.9584C183.463 3.536 183.521 3.24266 183.639 3.0784C183.756 2.91413 183.979 2.832 184.307 2.832H188.778L189.306 2.7968C189.541 2.7968 189.728 2.8672 189.869 3.008C190.033 3.1488 190.139 3.4304 190.186 3.8528C190.233 4.25173 190.256 5.63626 190.256 8.0064L190.221 15.5744C190.221 16.8885 190.01 18.4725 189.587 20.3264C189.165 22.1568 188.285 23.8581 186.947 25.4304C185.61 27.0027 183.697 27.7888 181.21 27.7888C175.625 27.7888 172.621 25.1136 172.199 19.7632C172.175 19.5285 172.163 19.0592 172.163 18.3552C172.163 17.6277 172.187 16.3488 172.234 14.5184C172.304 12.4064 172.328 10.8341 172.304 9.8016C172.304 8.3936 172.281 6.9152 172.234 5.3664C172.21 4.92053 172.199 4.46293 172.199 3.9936C172.199 3.89973 172.187 3.72373 172.163 3.4656C172.163 3.20746 172.21 3.01973 172.304 2.9024C172.422 2.78506 172.621 2.7264 172.903 2.7264L174.944 2.7616C175.414 2.7616 175.754 2.74986 175.965 2.7264C176.481 2.67946 176.904 2.656 177.232 2.656L178.64 2.6912C178.851 2.6912 178.981 2.74986 179.027 2.8672C179.098 2.96106 179.145 3.1488 179.168 3.4304V17.5104Z"/>
<path d="M202.471 12.8992C202.964 12.8992 203.422 12.8757 203.844 12.8288C203.985 12.8053 204.208 12.7936 204.513 12.7936C204.842 12.7936 205.088 12.8053 205.252 12.8288L206.062 12.8992L206.167 11.8432L206.273 10.1536L206.343 6.704L206.414 3.9936C206.437 3.6416 206.484 3.40693 206.555 3.2896C206.625 3.17226 206.789 3.10186 207.048 3.0784C207.282 3.0784 207.939 3.008 209.019 2.8672C209.206 2.84373 209.547 2.832 210.039 2.832C210.79 2.832 211.412 2.8672 211.905 2.9376C212.163 2.98453 212.316 3.0432 212.363 3.1136C212.433 3.16053 212.468 3.2544 212.468 3.3952C212.492 3.536 212.515 3.66506 212.539 3.7824C212.539 4.15786 212.503 4.79146 212.433 5.6832C212.339 7.32586 212.292 8.45226 212.292 9.0624C212.292 9.36746 212.222 10.3413 212.081 11.984C211.94 13.7675 211.87 14.9291 211.87 15.4688L211.94 22.4384C211.94 25.0667 211.987 26.6741 212.081 27.2608V27.3312C212.081 27.5893 212.034 27.7536 211.94 27.824C211.846 27.8709 211.741 27.8944 211.623 27.8944C211.506 27.8709 211.424 27.8592 211.377 27.8592C211.189 27.8123 210.955 27.7888 210.673 27.7888C210.579 27.7888 210.274 27.8123 209.758 27.8592C209.101 27.9296 208.045 27.9648 206.59 27.9648H206.52C206.191 27.9648 206.027 27.8592 206.027 27.648C206.027 27.2021 206.015 26.3221 205.992 25.008C205.992 23.6939 205.956 22.7317 205.886 22.1216C205.839 21.2299 205.815 20.3616 205.815 19.5168C205.792 19.1648 205.78 18.6251 205.78 17.8976H204.759L203.246 17.9328L202.612 17.968L201.908 17.9328C201.556 17.9328 201.275 17.9211 201.063 17.8976L200.958 20.1152C200.888 20.9365 200.852 22.0043 200.852 23.3184V25.1136C200.852 26.3808 200.876 27.1435 200.923 27.4016C200.97 27.6832 200.923 27.8592 200.782 27.9296C200.665 27.9765 200.512 28 200.324 28C200.16 28 200.043 28 199.972 28C199.785 27.9765 199.468 27.9531 199.022 27.9296C198.576 27.8827 198.212 27.8592 197.931 27.8592L196.91 27.9296C196.746 27.9531 196.135 28 195.079 28.0704C194.54 28.1408 194.27 27.8123 194.27 27.0848L194.305 25.712L194.375 23.1776C194.375 22.6613 194.387 22.1803 194.411 21.7344L194.446 17.6512C194.446 16.7125 194.434 16.1141 194.411 15.856C194.34 15.3163 194.305 14.6123 194.305 13.744L194.34 11.5968C194.364 11.2448 194.375 10.7872 194.375 10.224C194.375 9.56693 194.446 8.20586 194.587 6.1408L194.692 3.712C194.692 3.52426 194.727 3.3952 194.798 3.3248C194.868 3.2544 194.974 3.2192 195.115 3.2192L195.572 3.2544C195.877 3.30133 196.276 3.33653 196.769 3.36C197.262 3.38346 197.743 3.3952 198.212 3.3952L199.831 3.36C200.09 3.33653 200.383 3.3248 200.711 3.3248H200.747C200.934 3.3248 201.028 3.45386 201.028 3.712C201.052 3.75893 201.063 4.22826 201.063 5.12C201.087 5.98826 201.099 7.0208 201.099 8.2176C201.099 8.96853 201.075 9.9776 201.028 11.2448L200.958 12.864L202.471 12.8992Z"/>
<path d="M231.888 27.5072C231.958 27.6715 231.994 27.7888 231.994 27.8592C231.994 27.9531 231.865 28 231.606 28H229.635C229.541 28 229.459 27.9883 229.389 27.9648C229.342 27.9179 229.295 27.824 229.248 27.6832C229.154 27.4251 229.025 27.0027 228.861 26.416C228.65 25.8293 228.509 25.3013 228.438 24.832C228.368 24.48 228.251 24.0576 228.086 23.5648C227.946 23.072 227.816 22.6965 227.699 22.4384C227.488 21.9925 227.3 21.488 227.136 20.9248L226.819 19.904C226.702 19.6459 226.608 19.4933 226.538 19.4464C226.491 19.376 226.397 19.3408 226.256 19.3408C225.763 19.3408 225.399 19.3525 225.165 19.376L223.651 19.4464C223.463 19.4699 222.595 19.4816 221.046 19.4816H218.899H218.829C218.688 19.4816 218.582 19.6107 218.512 19.8688L218.442 20.2208L218.301 20.8896C218.254 21.0069 218.101 21.6875 217.843 22.9312C217.773 23.3301 217.655 23.8464 217.491 24.48C217.444 24.9493 217.339 25.3365 217.174 25.6416C217.127 25.712 217.069 25.8763 216.998 26.1344C216.928 26.3925 216.869 26.6037 216.822 26.768C216.752 26.9557 216.67 27.2608 216.576 27.6832C216.552 27.7067 216.529 27.7653 216.506 27.8592C216.482 27.9296 216.447 27.9765 216.4 28C216.353 28 216.283 28 216.189 28H215.485C215.274 28 215.215 27.8475 215.309 27.5424C215.309 27.472 215.32 27.4133 215.344 27.3664C215.344 27.3195 215.356 27.2608 215.379 27.1904C215.403 27.12 215.438 27.0144 215.485 26.8736L215.802 25.5712C215.848 25.4304 215.931 25.184 216.048 24.832C216.165 24.48 216.247 24.1515 216.294 23.8464C216.412 23.2832 216.635 22.4267 216.963 21.2768L217.245 20.2912C217.691 18.8363 217.972 17.8155 218.09 17.2288L218.582 15.3632C218.817 14.5888 218.958 14.096 219.005 13.8848C219.169 13.1808 219.404 12.3008 219.709 11.2448L219.955 10.2592L220.166 9.52C220.401 8.72213 220.601 8.1472 220.765 7.7952C220.812 7.6544 220.976 7.17333 221.258 6.352C221.563 5.5072 221.762 4.8384 221.856 4.3456C222.02 3.7824 222.185 3.36 222.349 3.0784C222.537 2.7968 222.783 2.656 223.088 2.656C223.205 2.656 223.323 2.7616 223.44 2.9728C223.557 3.184 223.675 3.44213 223.792 3.7472C223.909 4.05226 223.991 4.2752 224.038 4.416C224.226 4.86186 224.555 5.97653 225.024 7.76L225.306 8.7456C225.329 8.93333 225.716 10.0832 226.467 12.1952L227.136 14.1312L227.77 15.7856C228.427 17.6395 228.849 18.7659 229.037 19.1648C229.858 21.6523 230.339 23.1541 230.48 23.6704C230.644 24.2805 230.902 25.0432 231.254 25.9584C231.63 26.8736 231.841 27.3899 231.888 27.5072ZM225.306 17.0528C225.611 17.0528 225.763 16.9707 225.763 16.8064C225.763 16.6891 225.681 16.4309 225.517 16.032C225.376 15.68 225.165 15.0229 224.883 14.0608C224.672 13.2864 224.461 12.6176 224.25 12.0544C224.015 11.3504 223.757 10.5173 223.475 9.5552C223.217 8.59306 223.064 7.9712 223.018 7.6896C222.666 6.44586 222.431 5.824 222.314 5.824C222.243 5.824 222.126 6.1408 221.962 6.7744L221.75 7.5488C221.586 8.1824 221.375 8.98026 221.117 9.9424C220.859 10.8811 220.624 11.6789 220.413 12.336C220.272 12.9461 220.072 13.7205 219.814 14.6592C219.58 15.5744 219.392 16.208 219.251 16.56C219.204 16.7008 219.181 16.7829 219.181 16.8064C219.181 16.9707 219.251 17.0763 219.392 17.1232C219.556 17.1701 219.709 17.1936 219.85 17.1936C220.014 17.1701 220.119 17.1584 220.166 17.1584L222.208 17.088C222.49 17.0411 222.889 17.0176 223.405 17.0176L225.306 17.0528Z"/>
<path d="M240.33 2.5152C240.846 2.5152 241.222 2.57386 241.457 2.6912C241.715 2.78506 241.914 2.96106 242.055 3.2192C242.29 3.712 242.583 4.3456 242.935 5.12L244.237 7.936L245.892 11.5616C246.197 12.2187 246.596 13.0869 247.089 14.1664C247.581 15.2459 247.933 15.9968 248.145 16.4192C248.544 17.2405 248.802 17.7451 248.919 17.9328L249.905 19.8688L250.996 22.016L250.925 19.9744L250.785 16.5248V15.4688C250.785 14.1781 250.808 12.8757 250.855 11.5616C250.855 10.576 250.843 9.77813 250.82 9.168L250.785 6.4928L250.925 3.1136C250.925 2.7616 251.101 2.5856 251.453 2.5856C251.571 2.5856 251.805 2.6208 252.157 2.6912C252.369 2.73813 252.592 2.7616 252.826 2.7616C253.061 2.7616 253.249 2.7616 253.389 2.7616C253.577 2.7616 253.694 2.78506 253.741 2.832C253.812 2.87893 253.847 2.96106 253.847 3.0784C253.847 3.17226 253.835 3.27786 253.812 3.3952C253.788 3.51253 253.777 3.6416 253.777 3.7824L253.741 6.8096L253.671 13.92L253.636 14.9408C253.636 15.7387 253.648 16.4661 253.671 17.1232C253.694 17.7803 253.718 18.32 253.741 18.7424C253.812 19.7515 253.847 20.5963 253.847 21.2768C253.847 21.1829 253.882 22.5792 253.953 25.4656L254.023 27.4368V27.5072C254.023 27.9765 253.8 28.1877 253.354 28.1408C253.284 28.1173 253.143 28.1056 252.932 28.1056L251.911 28.1408H251.7C251.536 28.1408 251.406 28.1056 251.313 28.0352C251.242 27.9648 251.113 27.7653 250.925 27.4368C250.855 27.2725 250.761 27.0379 250.644 26.7328C250.526 26.4277 250.386 26.0875 250.221 25.712C249.212 23.1776 248.485 21.4528 248.039 20.5376C247.523 19.552 246.22 16.7243 244.132 12.0544C243.662 11.0923 243.134 10.0715 242.548 8.992L241.527 7.1616L241.633 10.5056L241.668 12.5824C241.715 14.1312 241.738 15.152 241.738 15.6448C241.738 17.5691 241.773 19.5051 241.844 21.4528L241.879 24.1984C241.879 24.6912 241.902 25.4069 241.949 26.3456L242.02 27.5776V27.648C242.02 27.8827 241.961 28.0352 241.844 28.1056C241.726 28.176 241.562 28.2112 241.351 28.2112L240.577 28.2464C240.084 28.3168 239.556 28.352 238.993 28.352C238.336 28.352 237.796 28.3637 237.373 28.3872L235.578 28.4224C235.226 28.4224 234.992 28.352 234.874 28.2112C234.757 28.0939 234.686 27.9531 234.663 27.7888C234.64 27.6245 234.616 27.5072 234.593 27.4368C234.499 27.0144 234.452 26.4981 234.452 25.888C234.452 25.3248 234.464 24.8437 234.487 24.4448C234.487 23.2245 234.51 21.8048 234.557 20.1856C234.604 18.5429 234.663 17.3696 234.733 16.6656L234.909 14.1664C235.191 10.2709 235.332 8.0768 235.332 7.584C235.332 5.73013 235.367 4.3456 235.437 3.4304C235.484 2.7968 235.813 2.48 236.423 2.48C236.611 2.48 236.787 2.49173 236.951 2.5152C237.115 2.53866 237.244 2.5504 237.338 2.5504L240.33 2.5152Z"/>
<path d="M276.226 27.296C276.344 27.5307 276.402 27.6832 276.402 27.7536C276.402 27.9413 276.191 28.0352 275.769 28.0352H273.234C273.141 28.0352 273.047 27.9531 272.953 27.7888C272.859 27.6245 272.777 27.4603 272.706 27.296C272.636 27.1317 272.577 26.9909 272.53 26.8736C272.413 26.6389 272.19 26.0992 271.862 25.2544C271.557 24.4096 271.322 23.7408 271.158 23.248C271.087 23.0133 270.946 22.6731 270.735 22.2272C270.524 21.7579 270.372 21.4293 270.278 21.2416C270.184 20.96 270.09 20.7723 269.996 20.6784C269.926 20.5845 269.808 20.5376 269.644 20.5376C269.48 20.5376 269.269 20.5493 269.01 20.5728C268.776 20.5963 268.518 20.6197 268.236 20.6432C268.048 20.6901 267.462 20.7136 266.476 20.7136C265.796 20.7136 265.127 20.7371 264.47 20.784C264.258 20.8075 263.883 20.8192 263.343 20.8192L261.478 20.784C261.36 20.784 261.266 20.8309 261.196 20.9248C261.149 21.0187 261.114 21.136 261.09 21.2768C261.067 21.3941 261.044 21.488 261.02 21.5584L260.809 22.4384C260.738 22.7669 260.645 23.1541 260.527 23.6C260.433 24.0224 260.351 24.4213 260.281 24.7968L259.894 26.3104L259.612 27.3312C259.542 27.6128 259.471 27.8005 259.401 27.8944C259.354 27.9648 259.272 28 259.154 28H257.078C256.96 28 256.902 27.9531 256.902 27.8592C256.902 27.8123 256.949 27.648 257.042 27.3664C257.23 26.9205 257.394 26.4747 257.535 26.0288C258.404 23.1189 258.92 21.2181 259.084 20.3264C259.295 19.1531 259.729 17.6395 260.386 15.7856C260.598 14.9877 260.797 14.2603 260.985 13.6032C261.055 13.2747 261.161 12.8757 261.302 12.4064C261.748 10.7637 262.193 9.22666 262.639 7.7952L263.519 4.9792C263.707 4.25173 263.942 3.5008 264.223 2.7264C264.364 2.3744 264.528 2.29226 264.716 2.48C264.857 2.57386 264.962 2.73813 265.033 2.9728C265.103 3.20746 265.15 3.37173 265.174 3.4656C265.244 3.7472 265.866 5.1552 267.039 7.6896C267.509 8.65173 268.013 9.9072 268.553 11.456C268.788 12.1365 269.433 13.6032 270.489 15.856C271.029 16.9589 271.381 17.7216 271.545 18.144C271.92 18.9653 272.929 20.96 274.572 24.128L274.994 25.008C275.534 26.2048 275.945 26.9675 276.226 27.296ZM267.004 15.68C267.168 15.6565 267.309 15.6448 267.426 15.6448C267.544 15.6448 267.638 15.6331 267.708 15.6096C267.778 15.5861 267.814 15.5509 267.814 15.504C267.814 15.4571 267.778 15.3632 267.708 15.2224C267.591 15.0112 267.321 14.4245 266.898 13.4624C266.476 12.4768 266.183 11.7376 266.018 11.2448C265.784 10.6816 265.596 10.2123 265.455 9.8368C265.338 9.46133 265.244 9.2032 265.174 9.0624C265.127 8.94506 265.068 8.82773 264.998 8.7104C264.951 8.59306 264.904 8.4992 264.857 8.4288C264.81 8.3584 264.763 8.3232 264.716 8.3232C264.646 8.3232 264.564 8.4992 264.47 8.8512C264.399 9.2032 264.341 9.47306 264.294 9.6608C263.871 11.0219 263.566 12.0544 263.378 12.7584C263.285 13.1104 263.144 13.5445 262.956 14.0608C262.792 14.5536 262.674 14.8939 262.604 15.0816C262.534 15.3163 262.498 15.504 262.498 15.6448C262.498 15.7856 262.604 15.856 262.815 15.856C263.308 15.856 264.059 15.8443 265.068 15.8208C266.101 15.7739 266.746 15.7269 267.004 15.68Z"/>
</mask>
<path d="M7.95518 2.5152C8.47145 2.5152 8.84692 2.57386 9.08158 2.6912C9.33972 2.78506 9.53918 2.96106 9.67998 3.2192C9.91465 3.712 10.208 4.3456 10.56 5.12L11.8624 7.936L13.5168 11.5616C13.8218 12.2187 14.2208 13.0869 14.7136 14.1664C15.2064 15.2459 15.5584 15.9968 15.7696 16.4192C16.1685 17.2405 16.4266 17.7451 16.544 17.9328L17.5296 19.8688L18.6208 22.016L18.5504 19.9744L18.4096 16.5248V15.4688C18.4096 14.1781 18.4331 12.8757 18.48 11.5616C18.48 10.576 18.4683 9.77813 18.4448 9.168L18.4096 6.4928L18.5504 3.1136C18.5504 2.7616 18.7264 2.5856 19.0784 2.5856C19.1957 2.5856 19.4304 2.6208 19.7824 2.6912C19.9936 2.73813 20.2165 2.7616 20.4512 2.7616C20.6859 2.7616 20.8736 2.7616 21.0144 2.7616C21.2021 2.7616 21.3195 2.78506 21.3664 2.832C21.4368 2.87893 21.472 2.96106 21.472 3.0784C21.472 3.17226 21.4603 3.27786 21.4368 3.3952C21.4133 3.51253 21.4016 3.6416 21.4016 3.7824L21.3664 6.8096L21.296 13.92L21.2608 14.9408C21.2608 15.7387 21.2725 16.4661 21.296 17.1232C21.3195 17.7803 21.3429 18.32 21.3664 18.7424C21.4368 19.7515 21.472 20.5963 21.472 21.2768C21.472 21.1829 21.5072 22.5792 21.5776 25.4656L21.648 27.4368V27.5072C21.648 27.9765 21.425 28.1877 20.9792 28.1408C20.9088 28.1173 20.768 28.1056 20.5568 28.1056L19.536 28.1408H19.3248C19.1605 28.1408 19.0315 28.1056 18.9376 28.0352C18.8672 27.9648 18.7381 27.7653 18.5504 27.4368C18.48 27.2725 18.3861 27.0379 18.2688 26.7328C18.1515 26.4277 18.0106 26.0875 17.8464 25.712C16.8373 23.1776 16.1098 21.4528 15.664 20.5376C15.1477 19.552 13.8453 16.7243 11.7568 12.0544C11.2874 11.0923 10.7594 10.0715 10.1728 8.992L9.15198 7.1616L9.25758 10.5056L9.29278 12.5824C9.33972 14.1312 9.36318 15.152 9.36318 15.6448C9.36318 17.5691 9.39838 19.5051 9.46878 21.4528L9.50398 24.1984C9.50398 24.6912 9.52745 25.4069 9.57438 26.3456L9.64478 27.5776V27.648C9.64478 27.8827 9.58612 28.0352 9.46878 28.1056C9.35145 28.176 9.18718 28.2112 8.97598 28.2112L8.20158 28.2464C7.70878 28.3168 7.18078 28.352 6.61758 28.352C5.96052 28.352 5.42078 28.3637 4.99838 28.3872L3.20318 28.4224C2.85118 28.4224 2.61652 28.352 2.49918 28.2112C2.38185 28.0939 2.31145 27.9531 2.28798 27.7888C2.26452 27.6245 2.24105 27.5072 2.21758 27.4368C2.12372 27.0144 2.07678 26.4981 2.07678 25.888C2.07678 25.3248 2.08852 24.8437 2.11198 24.4448C2.11198 23.2245 2.13545 21.8048 2.18238 20.1856C2.22932 18.5429 2.28798 17.3696 2.35838 16.6656L2.53438 14.1664C2.81598 10.2709 2.95678 8.0768 2.95678 7.584C2.95678 5.73013 2.99198 4.3456 3.06238 3.4304C3.10932 2.7968 3.43785 2.48 4.04798 2.48C4.23572 2.48 4.41172 2.49173 4.57598 2.5152C4.74025 2.53866 4.86932 2.5504 4.96318 2.5504L7.95518 2.5152Z" stroke="#212121" stroke-width="4" mask="url(#path-1-outside-1_1_10)"/>
<path d="M41.1411 27.5072C41.2115 27.6715 41.2467 27.7888 41.2467 27.8592C41.2467 27.9531 41.1176 28 40.8595 28H38.8883C38.7944 28 38.7123 27.9883 38.6419 27.9648C38.595 27.9179 38.548 27.824 38.5011 27.6832C38.4072 27.4251 38.2781 27.0027 38.1139 26.416C37.9027 25.8293 37.7619 25.3013 37.6915 24.832C37.6211 24.48 37.5037 24.0576 37.3395 23.5648C37.1987 23.072 37.0696 22.6965 36.9523 22.4384C36.7411 21.9925 36.5533 21.488 36.3891 20.9248L36.0723 19.904C35.9549 19.6459 35.8611 19.4933 35.7907 19.4464C35.7438 19.376 35.6499 19.3408 35.5091 19.3408C35.0163 19.3408 34.6525 19.3525 34.4179 19.376L32.9043 19.4464C32.7166 19.4699 31.8483 19.4816 30.2995 19.4816H28.1523H28.0819C27.9411 19.4816 27.8355 19.6107 27.7651 19.8688L27.6947 20.2208L27.5539 20.8896C27.507 21.0069 27.3544 21.6875 27.0963 22.9312C27.0259 23.3301 26.9086 23.8464 26.7443 24.48C26.6974 24.9493 26.5917 25.3365 26.4275 25.6416C26.3805 25.712 26.3219 25.8763 26.2515 26.1344C26.1811 26.3925 26.1224 26.6037 26.0755 26.768C26.0051 26.9557 25.9229 27.2608 25.8291 27.6832C25.8056 27.7067 25.7822 27.7653 25.7587 27.8592C25.7352 27.9296 25.7 27.9765 25.6531 28C25.6062 28 25.5357 28 25.4419 28H24.7379C24.5267 28 24.468 27.8475 24.5619 27.5424C24.5619 27.472 24.5736 27.4133 24.5971 27.3664C24.5971 27.3195 24.6088 27.2608 24.6323 27.1904C24.6558 27.12 24.6909 27.0144 24.7379 26.8736L25.0547 25.5712C25.1016 25.4304 25.1837 25.184 25.3011 24.832C25.4184 24.48 25.5006 24.1515 25.5475 23.8464C25.6648 23.2832 25.8878 22.4267 26.2163 21.2768L26.4979 20.2912C26.9437 18.8363 27.2254 17.8155 27.3427 17.2288L27.8355 15.3632C28.0702 14.5888 28.2109 14.096 28.2579 13.8848C28.4221 13.1808 28.6568 12.3008 28.9619 11.2448L29.2083 10.2592L29.4195 9.52C29.6541 8.72213 29.8536 8.1472 30.0179 7.7952C30.0648 7.6544 30.2291 7.17333 30.5107 6.352C30.8157 5.5072 31.0152 4.8384 31.1091 4.3456C31.2733 3.7824 31.4376 3.36 31.6019 3.0784C31.7896 2.7968 32.036 2.656 32.3411 2.656C32.4584 2.656 32.5757 2.7616 32.6931 2.9728C32.8104 3.184 32.9278 3.44213 33.0451 3.7472C33.1624 4.05226 33.2445 4.2752 33.2915 4.416C33.4792 4.86186 33.8077 5.97653 34.2771 7.76L34.5587 8.7456C34.5821 8.93333 34.9694 10.0832 35.7203 12.1952L36.3891 14.1312L37.0227 15.7856C37.6797 17.6395 38.1021 18.7659 38.2899 19.1648C39.1112 21.6523 39.5923 23.1541 39.7331 23.6704C39.8973 24.2805 40.1555 25.0432 40.5075 25.9584C40.8829 26.8736 41.0941 27.3899 41.1411 27.5072ZM34.5587 17.0528C34.8637 17.0528 35.0163 16.9707 35.0163 16.8064C35.0163 16.6891 34.9341 16.4309 34.7699 16.032C34.6291 15.68 34.4179 15.0229 34.1363 14.0608C33.9251 13.2864 33.7139 12.6176 33.5027 12.0544C33.268 11.3504 33.0099 10.5173 32.7283 9.5552C32.4702 8.59306 32.3176 7.9712 32.2707 7.6896C31.9187 6.44586 31.684 5.824 31.5667 5.824C31.4963 5.824 31.379 6.1408 31.2147 6.7744L31.0035 7.5488C30.8392 8.1824 30.628 8.98026 30.3699 9.9424C30.1118 10.8811 29.8771 11.6789 29.6659 12.336C29.5251 12.9461 29.3256 13.7205 29.0675 14.6592C28.8328 15.5744 28.6451 16.208 28.5043 16.56C28.4574 16.7008 28.4339 16.7829 28.4339 16.8064C28.4339 16.9707 28.5043 17.0763 28.6451 17.1232C28.8094 17.1701 28.9619 17.1936 29.1027 17.1936C29.267 17.1701 29.3725 17.1584 29.4195 17.1584L31.4611 17.088C31.7427 17.0411 32.1416 17.0176 32.6579 17.0176L34.5587 17.0528Z" stroke="#212121" stroke-width="4" mask="url(#path-1-outside-1_1_10)"/>
<path d="M51.3081 3.184C53.3497 3.184 54.8633 3.58293 55.8489 4.3808C56.8345 5.17866 57.3508 5.60106 57.3977 5.648C57.6324 5.81226 57.7497 5.97653 57.7497 6.1408C57.7497 6.23466 57.7028 6.32853 57.6089 6.4224C57.5385 6.51626 57.3977 6.71573 57.1865 7.0208C56.9753 7.32586 56.811 7.4784 56.6937 7.4784C56.5764 7.4784 56.4238 7.41973 56.2361 7.3024L55.9897 7.0912C54.2062 5.80053 52.6809 5.1552 51.4137 5.1552C49.7945 5.1552 48.5625 5.53066 47.7177 6.2816C46.8964 7.00906 46.4857 7.936 46.4857 9.0624C46.4857 10.0245 46.826 10.8459 47.5065 11.5264C48.2105 12.2069 49.1257 12.8523 50.2521 13.4624C50.5806 13.6032 50.9209 13.7323 51.2729 13.8496C52.4462 14.2955 53.467 14.7765 54.3353 15.2928C55.227 15.7856 56.0249 16.5483 56.7289 17.5808C57.4329 18.5899 57.7849 19.8688 57.7849 21.4176C57.7849 24.0693 56.8814 25.888 55.0745 26.8736C53.2676 27.8357 51.2494 28.3168 49.0201 28.3168C47.7294 28.3168 46.5561 28.0235 45.5001 27.4368C44.4676 26.8501 43.7284 26.3339 43.2825 25.888C43.0478 25.6768 42.9892 25.4656 43.1065 25.2544C43.13 25.2075 43.2238 25.0197 43.3881 24.6912C43.5758 24.3627 43.7401 24.1984 43.8809 24.1984H43.9513C44.0217 24.1984 44.0804 24.2219 44.1273 24.2688C44.1977 24.2923 44.2681 24.3509 44.3385 24.4448C44.4324 24.5387 44.538 24.6443 44.6553 24.7616C44.9604 25.0667 45.5588 25.4187 46.4505 25.8176C47.3422 26.1931 48.0814 26.3808 48.6681 26.3808C49.9118 26.3808 51.0969 26.1227 52.2233 25.6064C53.3497 25.0667 53.9129 23.9403 53.9129 22.2272C53.9129 21.4997 53.5844 20.8661 52.9273 20.3264C52.2937 19.7867 51.2964 19.1531 49.9353 18.4256L48.4217 17.5808C46.779 16.6421 45.4884 15.6331 44.5497 14.5536C43.6345 13.4741 43.1769 12.0544 43.1769 10.2944C43.1769 8.83947 43.5876 7.57227 44.4089 6.4928C45.2537 5.41333 46.298 4.592 47.5417 4.0288C48.8089 3.4656 50.0644 3.184 51.3081 3.184Z" stroke="#212121" stroke-width="4" mask="url(#path-1-outside-1_1_10)"/>
<path d="M76.2976 4.9792C76.2976 5.51893 76.2507 5.7888 76.1568 5.7888C76.016 5.7888 75.8518 5.77706 75.664 5.7536C75.4998 5.70666 75.2886 5.6832 75.0304 5.6832H69.3984L65.0336 5.648C64.8928 5.648 64.3648 5.6832 63.4496 5.7536L62.64 5.824L62.5696 6.7744C62.5462 7.1264 62.5344 7.67786 62.5344 8.4288C62.5344 8.80426 62.5579 9.29707 62.6048 9.9072C62.6518 10.4704 62.6752 10.8811 62.6752 11.1392V12.5472C62.6752 12.9227 62.687 13.216 62.7104 13.4272C62.9216 13.4507 63.2384 13.4624 63.6608 13.4624H65.0688C65.2096 13.4624 65.4912 13.4389 65.9136 13.392C66.5238 13.3451 67.0518 13.3216 67.4976 13.3216C67.6854 13.3216 68.3424 13.3568 69.4688 13.4272L70.2432 13.4624C70.431 13.4624 70.7008 13.4507 71.0528 13.4272C71.4048 13.3803 71.7451 13.3568 72.0736 13.3568L73.2352 13.392C73.8454 13.4389 74.2678 13.4624 74.5024 13.4624C74.7606 13.4624 74.9366 13.4507 75.0304 13.4272L75.2416 13.392C75.4059 13.392 75.5232 13.4507 75.5936 13.568C75.664 13.6619 75.6875 13.7557 75.664 13.8496C75.6406 14.0139 75.6288 14.2251 75.6288 14.4832C75.6288 14.7179 75.6171 14.9291 75.5936 15.1168C75.5702 15.3045 75.535 15.4219 75.488 15.4688C75.4411 15.4923 75.3003 15.504 75.0656 15.504L73.6576 15.3632C71.8976 15.1989 70.7478 15.1168 70.208 15.1168C68.2134 15.1168 66.7467 15.152 65.808 15.2224C65.4326 15.2693 65.0219 15.2928 64.576 15.2928C64.1302 15.2928 63.8486 15.2928 63.7312 15.2928C63.2854 15.2928 62.9568 15.2811 62.7456 15.2576L62.64 15.8208C62.5931 16.2432 62.5696 16.6187 62.5696 16.9472C62.5696 17.2288 62.5931 17.5573 62.64 17.9328C62.687 18.3083 62.7104 18.6368 62.7104 18.9184L62.7456 23.1072L62.7104 24.8672C62.687 25.0784 62.6752 25.3717 62.6752 25.7472C62.9803 25.7707 63.4262 25.7824 64.0128 25.7824C64.5056 25.8059 65.2683 25.8176 66.3008 25.8176L68.2016 25.8528C68.6006 25.8763 69.2107 25.888 70.032 25.888C70.5248 25.888 71.1702 25.8645 71.968 25.8176L73.4464 25.7824C74.0096 25.7824 74.479 25.7941 74.8544 25.8176C75.2299 25.8411 75.5115 25.8528 75.6992 25.8528C75.887 25.8528 75.9926 25.888 76.016 25.9584C76.063 26.0288 76.0864 26.1813 76.0864 26.416C76.0864 26.5803 76.0747 26.7563 76.0512 26.944C76.0278 27.1083 76.016 27.296 76.016 27.5072C76.016 27.6715 75.9574 27.7888 75.84 27.8592C75.7227 27.9061 75.535 27.9296 75.2768 27.9296C75.0187 27.9296 74.8075 27.9179 74.6432 27.8944C74.0096 27.824 72.7307 27.7888 70.8064 27.7888C69.6331 27.7888 68.7883 27.8005 68.272 27.824C67.8731 27.8475 67.216 27.8592 66.3008 27.8592L63.0272 27.824C62.6518 27.8005 62.2059 27.7888 61.6896 27.7888C61.3611 27.7888 61.1382 27.7536 61.0208 27.6832C60.927 27.5893 60.88 27.4485 60.88 27.2608L60.9152 26.6976C60.9387 26.6037 60.9504 26.4981 60.9504 26.3808C60.9504 26.3104 60.9387 26.1461 60.9152 25.888C60.8918 25.6064 60.88 25.1019 60.88 24.3744C60.88 23.6704 60.8566 22.5205 60.8096 20.9248C60.7392 19.6107 60.704 18.3435 60.704 17.1232C60.704 16.6069 60.7627 15.1168 60.88 12.6528C60.9035 12.16 60.927 11.6672 60.9504 11.1744C60.9739 10.6816 60.9856 10.2357 60.9856 9.8368C60.9856 7.11466 60.9504 5.31946 60.88 4.4512C60.8096 3.888 61.1499 3.6064 61.9008 3.6064C62.0886 3.6064 62.3936 3.62986 62.816 3.6768C63.1915 3.72373 63.4731 3.7472 63.6608 3.7472L65.8784 3.6768C67.4742 3.58293 68.7062 3.536 69.5744 3.536C70.5835 3.536 72.0032 3.55946 73.8336 3.6064C74.4203 3.62986 75.0422 3.6416 75.6992 3.6416C75.9808 3.6416 76.1568 3.712 76.2272 3.8528C76.2976 3.9936 76.3211 4.14613 76.2976 4.3104C76.2976 4.4512 76.2976 4.54506 76.2976 4.592V4.9792Z" stroke="#212121" stroke-width="4" mask="url(#path-1-outside-1_1_10)"/>
<path d="M95.2614 27.0144C95.5899 27.5307 95.7542 27.8709 95.7542 28.0352C95.7542 28.1291 95.6955 28.1877 95.5782 28.2112C95.4608 28.2347 95.3552 28.2464 95.2614 28.2464C95.191 28.2464 95.1323 28.2464 95.0854 28.2464L91.1078 28.352C90.92 28.352 90.7675 28.2699 90.6502 28.1056C90.5563 27.9413 90.4155 27.648 90.2278 27.2256C90.1104 26.8736 89.8992 26.4043 89.5942 25.8176C89.1248 24.9728 88.3152 23.3888 87.1654 21.0656L85.3702 17.5808L85.4758 19.4464L85.6518 22.1216C85.7926 25.2661 85.9099 27.0027 86.0038 27.3312C86.0272 27.4251 86.039 27.5424 86.039 27.6832C86.039 28.1056 85.816 28.3168 85.3702 28.3168C85.2294 28.3168 85.112 28.3051 85.0182 28.2816C84.6427 28.2347 83.7275 28.2816 82.2726 28.4224C81.287 28.5163 80.6886 28.5632 80.4774 28.5632C80.1723 28.5632 79.9611 28.5045 79.8438 28.3872C79.7499 28.2699 79.703 28.0704 79.703 27.7888L79.7382 26.9792L79.6678 24.9376C79.527 22.4971 79.4566 20.3733 79.4566 18.5664C79.4566 17.6277 79.4918 16.9824 79.5622 16.6304C79.6795 16.0437 79.7382 14.3893 79.7382 11.6672C79.7382 8.82773 79.6912 6.68053 79.5974 5.2256C79.5739 5.03786 79.5622 4.77973 79.5622 4.4512C79.5622 4.07573 79.5974 3.80586 79.6678 3.6416C79.7382 3.47733 79.8086 3.3952 79.879 3.3952C79.9728 3.37173 80.1254 3.36 80.3366 3.36L81.111 3.2896C82.7302 3.10186 84.0208 3.008 84.983 3.008C87.6112 3.008 89.5824 3.68853 90.8966 5.0496C92.2342 6.3872 92.903 8.13546 92.903 10.2944C92.903 12.0075 92.3515 13.6501 91.2486 15.2224C90.7792 15.9029 90.2395 16.5131 89.6294 17.0528L92.0934 21.5232C93.9003 24.7616 94.9563 26.592 95.2614 27.0144ZM85.159 12.8992C85.511 12.8992 85.8278 12.8288 86.1094 12.688C86.7664 12.3829 87.095 11.7611 87.095 10.8224C87.095 10.1419 86.9894 9.63733 86.7782 9.3088C86.567 8.98026 86.2971 8.816 85.9686 8.816C85.7104 8.816 85.4875 8.90987 85.2998 9.0976C85.2763 9.12107 85.2763 9.28533 85.2998 9.5904C85.3232 9.89546 85.335 10.2005 85.335 10.5056C85.335 10.7637 85.3232 10.9515 85.2998 11.0688C85.2059 11.4677 85.159 11.8784 85.159 12.3008L85.1238 12.6176L85.159 12.8992Z" stroke="#212121" stroke-width="4" mask="url(#path-1-outside-1_1_10)"/>
<path d="M124.466 27.5072C124.536 27.6715 124.572 27.7888 124.572 27.8592C124.572 27.9531 124.443 28 124.184 28H122.213C122.119 28 122.037 27.9883 121.967 27.9648C121.92 27.9179 121.873 27.824 121.826 27.6832C121.732 27.4251 121.603 27.0027 121.439 26.416C121.228 25.8293 121.087 25.3013 121.016 24.832C120.946 24.48 120.829 24.0576 120.664 23.5648C120.524 23.072 120.395 22.6965 120.277 22.4384C120.066 21.9925 119.878 21.488 119.714 20.9248L119.397 19.904C119.28 19.6459 119.186 19.4933 119.116 19.4464C119.069 19.376 118.975 19.3408 118.834 19.3408C118.341 19.3408 117.978 19.3525 117.743 19.376L116.229 19.4464C116.042 19.4699 115.173 19.4816 113.624 19.4816H111.477H111.407C111.266 19.4816 111.16 19.6107 111.09 19.8688L111.02 20.2208L110.879 20.8896C110.832 21.0069 110.679 21.6875 110.421 22.9312C110.351 23.3301 110.234 23.8464 110.069 24.48C110.022 24.9493 109.917 25.3365 109.752 25.6416C109.706 25.712 109.647 25.8763 109.576 26.1344C109.506 26.3925 109.447 26.6037 109.4 26.768C109.33 26.9557 109.248 27.2608 109.154 27.6832C109.131 27.7067 109.107 27.7653 109.084 27.8592C109.06 27.9296 109.025 27.9765 108.978 28C108.931 28 108.861 28 108.767 28H108.063C107.852 28 107.793 27.8475 107.887 27.5424C107.887 27.472 107.899 27.4133 107.922 27.3664C107.922 27.3195 107.934 27.2608 107.957 27.1904C107.981 27.12 108.016 27.0144 108.063 26.8736L108.38 25.5712C108.427 25.4304 108.509 25.184 108.626 24.832C108.743 24.48 108.826 24.1515 108.872 23.8464C108.99 23.2832 109.213 22.4267 109.541 21.2768L109.823 20.2912C110.269 18.8363 110.55 17.8155 110.668 17.2288L111.16 15.3632C111.395 14.5888 111.536 14.096 111.583 13.8848C111.747 13.1808 111.982 12.3008 112.287 11.2448L112.533 10.2592L112.744 9.52C112.979 8.72213 113.179 8.1472 113.343 7.7952C113.39 7.6544 113.554 7.17333 113.836 6.352C114.141 5.5072 114.34 4.8384 114.434 4.3456C114.598 3.7824 114.763 3.36 114.927 3.0784C115.115 2.7968 115.361 2.656 115.666 2.656C115.783 2.656 115.901 2.7616 116.018 2.9728C116.135 3.184 116.253 3.44213 116.37 3.7472C116.487 4.05226 116.57 4.2752 116.616 4.416C116.804 4.86186 117.133 5.97653 117.602 7.76L117.884 8.7456C117.907 8.93333 118.294 10.0832 119.045 12.1952L119.714 14.1312L120.348 15.7856C121.005 17.6395 121.427 18.7659 121.615 19.1648C122.436 21.6523 122.917 23.1541 123.058 23.6704C123.222 24.2805 123.48 25.0432 123.832 25.9584C124.208 26.8736 124.419 27.3899 124.466 27.5072ZM117.884 17.0528C118.189 17.0528 118.341 16.9707 118.341 16.8064C118.341 16.6891 118.259 16.4309 118.095 16.032C117.954 15.68 117.743 15.0229 117.461 14.0608C117.25 13.2864 117.039 12.6176 116.828 12.0544C116.593 11.3504 116.335 10.5173 116.053 9.5552C115.795 8.59306 115.643 7.9712 115.596 7.6896C115.244 6.44586 115.009 5.824 114.892 5.824C114.821 5.824 114.704 6.1408 114.54 6.7744L114.328 7.5488C114.164 8.1824 113.953 8.98026 113.695 9.9424C113.437 10.8811 113.202 11.6789 112.991 12.336C112.85 12.9461 112.651 13.7205 112.392 14.6592C112.158 15.5744 111.97 16.208 111.829 16.56C111.782 16.7008 111.759 16.7829 111.759 16.8064C111.759 16.9707 111.829 17.0763 111.97 17.1232C112.134 17.1701 112.287 17.1936 112.428 17.1936C112.592 17.1701 112.698 17.1584 112.744 17.1584L114.786 17.088C115.068 17.0411 115.467 17.0176 115.983 17.0176L117.884 17.0528Z" stroke="#212121" stroke-width="4" mask="url(#path-1-outside-1_1_10)"/>
<path d="M130.163 5.6832C130.045 8.96853 129.987 10.752 129.987 11.0336L129.952 16.0672C129.952 16.5131 129.963 16.9003 129.987 17.2288L130.022 19.3408C130.022 19.8336 130.01 20.1387 129.987 20.256C129.963 20.3968 129.952 20.5259 129.952 20.6432C129.975 20.7605 129.987 20.8427 129.987 20.8896C129.987 20.9835 129.998 21.0421 130.022 21.0656L130.867 21.136C131.618 21.1829 132.24 21.1947 132.732 21.1712L139.244 21.1008C139.244 21.1008 140.476 21.136 142.94 21.2064L144.595 21.2416C144.853 21.2651 144.982 21.3355 144.982 21.4528C144.982 21.4997 144.97 21.5584 144.947 21.6288C144.923 21.6992 144.912 21.7696 144.912 21.84V23.4592C144.912 23.8816 144.982 24.7733 145.123 26.1344L145.264 27.6128L145.299 27.7888C145.299 27.9061 145.24 27.9765 145.123 28C145.005 28.0469 144.794 28.0704 144.489 28.0704L141.92 28.0352L137.555 27.9648C136.968 27.9648 136.147 28 135.091 28.0704C134.621 28.0939 134.093 28.1173 133.507 28.1408C132.944 28.1643 132.38 28.176 131.817 28.176L131.219 28.1408C131.078 28.1173 130.808 28.1056 130.409 28.1056L128.825 28.1408C128.544 28.1643 128.18 28.176 127.734 28.176C127.429 28.176 127.241 28.1291 127.171 28.0352C127.124 27.9648 127.1 27.8475 127.1 27.6832C127.124 27.5189 127.136 27.3781 127.136 27.2608C127.136 26.7445 127.171 25.8528 127.241 24.5856L127.347 20.96L127.276 19.3056C127.253 18.9771 127.229 18.5899 127.206 18.144C127.182 17.6747 127.171 17.1936 127.171 16.7008C127.171 17.4987 127.241 16.7008 127.382 14.3072C127.523 11.8901 127.593 10.4 127.593 9.8368L127.558 5.8592L127.488 3.6064V3.5712C127.488 3.38346 127.617 3.2896 127.875 3.2896L128.368 3.3248C128.485 3.3248 128.637 3.33653 128.825 3.36C129.013 3.36 129.306 3.36 129.705 3.36H130.022C130.163 3.36 130.233 3.45386 130.233 3.6416L130.163 5.6832Z" stroke="#212121" stroke-width="4" mask="url(#path-1-outside-1_1_10)"/>
<path d="M151.92 5.0496C152.037 5.6832 152.307 6.5632 152.729 7.6896C153.175 8.816 153.598 9.8016 153.997 10.6464C154.325 11.2096 154.759 12.1248 155.299 13.392C155.862 14.6357 156.261 15.6213 156.496 16.3488C156.637 16.7243 156.836 17.1936 157.094 17.7568L157.622 19.024L158.361 20.6784C159.042 19.3408 159.535 18.3669 159.84 17.7568L162.128 13.1808L163.712 10.0128C164.533 8.3232 165.085 7.232 165.366 6.7392C165.812 5.824 166.281 4.9792 166.774 4.2048C167.267 3.40693 167.619 3.008 167.83 3.008C168.018 3.008 168.112 3.16053 168.112 3.4656C168.112 3.7472 168.053 4.12266 167.936 4.592L167.795 5.472C167.701 6.1056 167.654 8.9216 167.654 13.92C167.654 15.0229 167.619 16.3605 167.549 17.9328C167.502 19.5051 167.455 20.5493 167.408 21.0656C167.361 21.6757 167.337 22.5792 167.337 23.776L167.373 27.1904V27.3664C167.373 27.648 167.302 27.7653 167.161 27.7184H167.091C166.974 27.7184 166.833 27.7301 166.669 27.7536C166.528 27.7771 166.375 27.7888 166.211 27.7888C166.117 27.7653 166.047 27.7067 166 27.6128C165.976 27.5189 165.965 27.3547 165.965 27.12V25.0432C165.965 22.6496 165.988 21.2416 166.035 20.8192C166.082 20.3264 166.129 19.4112 166.176 18.0736C166.246 16.736 166.281 15.6565 166.281 14.8352C166.258 14.624 166.27 13.9669 166.317 12.864L166.352 11.5968L166.422 9.0624C166.258 9.29706 166.117 9.54346 166 9.8016C165.765 10.2005 165.542 10.6347 165.331 11.104L164.979 11.808C164.58 12.5824 164.123 13.4976 163.606 14.5536C163.09 15.5861 162.644 16.4661 162.269 17.1936C161.846 18.0384 161.307 19.1296 160.649 20.4672C160.016 21.7813 159.523 22.8256 159.171 23.6C158.561 25.0315 158.209 25.7472 158.115 25.7472C158.045 25.7472 157.939 25.6299 157.798 25.3952C157.657 25.1605 157.564 25.008 157.517 24.9376C157.352 24.6795 157.094 24.1397 156.742 23.3184C156.39 22.4736 156.109 21.7344 155.897 21.1008C155.757 20.6784 155.147 19.4933 154.067 17.5456C153.222 15.9264 152.788 15.0816 152.765 15.0112C152.53 14.5419 152.213 13.7557 151.814 12.6528C151.556 12.0661 151.357 11.5499 151.216 11.104L151.145 12.6528L151.075 15.0464L151.005 21.9808L150.969 27.472C150.969 27.6832 150.911 27.8123 150.793 27.8592C150.676 27.9061 150.535 27.9296 150.371 27.9296C150.207 27.9061 150.078 27.8944 149.984 27.8944L149.209 27.9296C148.787 27.9765 148.482 28 148.294 28C147.942 28 147.731 27.9296 147.661 27.7888C147.614 27.6245 147.602 27.296 147.625 26.8032C147.625 26.0288 147.614 25.2896 147.59 24.5856L147.52 20.256C147.52 19.5989 147.543 18.9184 147.59 18.2144C147.637 17.4869 147.672 16.8416 147.696 16.2784C147.813 14.5888 147.872 13.4037 147.872 12.7232L147.942 6.1056L147.907 4.2048C147.907 3.38346 147.966 2.91413 148.083 2.7968C148.153 2.7264 148.236 2.6912 148.329 2.6912C148.4 2.6912 148.505 2.71466 148.646 2.7616C148.787 2.80853 148.963 2.82026 149.174 2.7968C149.385 2.77333 149.679 2.7616 150.054 2.7616C150.5 2.7616 150.829 2.78506 151.04 2.832C151.251 2.9024 151.404 3.0784 151.497 3.36C151.591 3.61813 151.673 3.9232 151.744 4.2752C151.814 4.60373 151.873 4.86186 151.92 5.0496Z" stroke="#212121" stroke-width="4" mask="url(#path-1-outside-1_1_10)"/>
<path d="M179.168 17.5104C179.168 18.0267 179.192 18.4725 179.239 18.848C179.309 19.2235 179.485 19.5872 179.767 19.9392C180.072 20.2677 180.553 20.432 181.21 20.432C182.125 20.432 182.747 20.0917 183.075 19.4112C183.404 18.7072 183.568 17.9445 183.568 17.1232L183.603 15.3632C183.674 12.7584 183.709 11.3035 183.709 10.9984C183.709 10.3413 183.697 9.89546 183.674 9.6608C183.674 8.83946 183.627 7.584 183.533 5.8944L183.463 3.9584C183.463 3.536 183.521 3.24266 183.639 3.0784C183.756 2.91413 183.979 2.832 184.307 2.832H188.778L189.306 2.7968C189.541 2.7968 189.728 2.8672 189.869 3.008C190.033 3.1488 190.139 3.4304 190.186 3.8528C190.233 4.25173 190.256 5.63626 190.256 8.0064L190.221 15.5744C190.221 16.8885 190.01 18.4725 189.587 20.3264C189.165 22.1568 188.285 23.8581 186.947 25.4304C185.61 27.0027 183.697 27.7888 181.21 27.7888C175.625 27.7888 172.621 25.1136 172.199 19.7632C172.175 19.5285 172.163 19.0592 172.163 18.3552C172.163 17.6277 172.187 16.3488 172.234 14.5184C172.304 12.4064 172.328 10.8341 172.304 9.8016C172.304 8.3936 172.281 6.9152 172.234 5.3664C172.21 4.92053 172.199 4.46293 172.199 3.9936C172.199 3.89973 172.187 3.72373 172.163 3.4656C172.163 3.20746 172.21 3.01973 172.304 2.9024C172.422 2.78506 172.621 2.7264 172.903 2.7264L174.944 2.7616C175.414 2.7616 175.754 2.74986 175.965 2.7264C176.481 2.67946 176.904 2.656 177.232 2.656L178.64 2.6912C178.851 2.6912 178.981 2.74986 179.027 2.8672C179.098 2.96106 179.145 3.1488 179.168 3.4304V17.5104Z" stroke="#212121" stroke-width="4" mask="url(#path-1-outside-1_1_10)"/>
<path d="M202.471 12.8992C202.964 12.8992 203.422 12.8757 203.844 12.8288C203.985 12.8053 204.208 12.7936 204.513 12.7936C204.842 12.7936 205.088 12.8053 205.252 12.8288L206.062 12.8992L206.167 11.8432L206.273 10.1536L206.343 6.704L206.414 3.9936C206.437 3.6416 206.484 3.40693 206.555 3.2896C206.625 3.17226 206.789 3.10186 207.048 3.0784C207.282 3.0784 207.939 3.008 209.019 2.8672C209.206 2.84373 209.547 2.832 210.039 2.832C210.79 2.832 211.412 2.8672 211.905 2.9376C212.163 2.98453 212.316 3.0432 212.363 3.1136C212.433 3.16053 212.468 3.2544 212.468 3.3952C212.492 3.536 212.515 3.66506 212.539 3.7824C212.539 4.15786 212.503 4.79146 212.433 5.6832C212.339 7.32586 212.292 8.45226 212.292 9.0624C212.292 9.36746 212.222 10.3413 212.081 11.984C211.94 13.7675 211.87 14.9291 211.87 15.4688L211.94 22.4384C211.94 25.0667 211.987 26.6741 212.081 27.2608V27.3312C212.081 27.5893 212.034 27.7536 211.94 27.824C211.846 27.8709 211.741 27.8944 211.623 27.8944C211.506 27.8709 211.424 27.8592 211.377 27.8592C211.189 27.8123 210.955 27.7888 210.673 27.7888C210.579 27.7888 210.274 27.8123 209.758 27.8592C209.101 27.9296 208.045 27.9648 206.59 27.9648H206.52C206.191 27.9648 206.027 27.8592 206.027 27.648C206.027 27.2021 206.015 26.3221 205.992 25.008C205.992 23.6939 205.956 22.7317 205.886 22.1216C205.839 21.2299 205.815 20.3616 205.815 19.5168C205.792 19.1648 205.78 18.6251 205.78 17.8976H204.759L203.246 17.9328L202.612 17.968L201.908 17.9328C201.556 17.9328 201.275 17.9211 201.063 17.8976L200.958 20.1152C200.888 20.9365 200.852 22.0043 200.852 23.3184V25.1136C200.852 26.3808 200.876 27.1435 200.923 27.4016C200.97 27.6832 200.923 27.8592 200.782 27.9296C200.665 27.9765 200.512 28 200.324 28C200.16 28 200.043 28 199.972 28C199.785 27.9765 199.468 27.9531 199.022 27.9296C198.576 27.8827 198.212 27.8592 197.931 27.8592L196.91 27.9296C196.746 27.9531 196.135 28 195.079 28.0704C194.54 28.1408 194.27 27.8123 194.27 27.0848L194.305 25.712L194.375 23.1776C194.375 22.6613 194.387 22.1803 194.411 21.7344L194.446 17.6512C194.446 16.7125 194.434 16.1141 194.411 15.856C194.34 15.3163 194.305 14.6123 194.305 13.744L194.34 11.5968C194.364 11.2448 194.375 10.7872 194.375 10.224C194.375 9.56693 194.446 8.20586 194.587 6.1408L194.692 3.712C194.692 3.52426 194.727 3.3952 194.798 3.3248C194.868 3.2544 194.974 3.2192 195.115 3.2192L195.572 3.2544C195.877 3.30133 196.276 3.33653 196.769 3.36C197.262 3.38346 197.743 3.3952 198.212 3.3952L199.831 3.36C200.09 3.33653 200.383 3.3248 200.711 3.3248H200.747C200.934 3.3248 201.028 3.45386 201.028 3.712C201.052 3.75893 201.063 4.22826 201.063 5.12C201.087 5.98826 201.099 7.0208 201.099 8.2176C201.099 8.96853 201.075 9.9776 201.028 11.2448L200.958 12.864L202.471 12.8992Z" stroke="#212121" stroke-width="4" mask="url(#path-1-outside-1_1_10)"/>
<path d="M231.888 27.5072C231.958 27.6715 231.994 27.7888 231.994 27.8592C231.994 27.9531 231.865 28 231.606 28H229.635C229.541 28 229.459 27.9883 229.389 27.9648C229.342 27.9179 229.295 27.824 229.248 27.6832C229.154 27.4251 229.025 27.0027 228.861 26.416C228.65 25.8293 228.509 25.3013 228.438 24.832C228.368 24.48 228.251 24.0576 228.086 23.5648C227.946 23.072 227.816 22.6965 227.699 22.4384C227.488 21.9925 227.3 21.488 227.136 20.9248L226.819 19.904C226.702 19.6459 226.608 19.4933 226.538 19.4464C226.491 19.376 226.397 19.3408 226.256 19.3408C225.763 19.3408 225.399 19.3525 225.165 19.376L223.651 19.4464C223.463 19.4699 222.595 19.4816 221.046 19.4816H218.899H218.829C218.688 19.4816 218.582 19.6107 218.512 19.8688L218.442 20.2208L218.301 20.8896C218.254 21.0069 218.101 21.6875 217.843 22.9312C217.773 23.3301 217.655 23.8464 217.491 24.48C217.444 24.9493 217.339 25.3365 217.174 25.6416C217.127 25.712 217.069 25.8763 216.998 26.1344C216.928 26.3925 216.869 26.6037 216.822 26.768C216.752 26.9557 216.67 27.2608 216.576 27.6832C216.552 27.7067 216.529 27.7653 216.506 27.8592C216.482 27.9296 216.447 27.9765 216.4 28C216.353 28 216.283 28 216.189 28H215.485C215.274 28 215.215 27.8475 215.309 27.5424C215.309 27.472 215.32 27.4133 215.344 27.3664C215.344 27.3195 215.356 27.2608 215.379 27.1904C215.403 27.12 215.438 27.0144 215.485 26.8736L215.802 25.5712C215.848 25.4304 215.931 25.184 216.048 24.832C216.165 24.48 216.247 24.1515 216.294 23.8464C216.412 23.2832 216.635 22.4267 216.963 21.2768L217.245 20.2912C217.691 18.8363 217.972 17.8155 218.09 17.2288L218.582 15.3632C218.817 14.5888 218.958 14.096 219.005 13.8848C219.169 13.1808 219.404 12.3008 219.709 11.2448L219.955 10.2592L220.166 9.52C220.401 8.72213 220.601 8.1472 220.765 7.7952C220.812 7.6544 220.976 7.17333 221.258 6.352C221.563 5.5072 221.762 4.8384 221.856 4.3456C222.02 3.7824 222.185 3.36 222.349 3.0784C222.537 2.7968 222.783 2.656 223.088 2.656C223.205 2.656 223.323 2.7616 223.44 2.9728C223.557 3.184 223.675 3.44213 223.792 3.7472C223.909 4.05226 223.991 4.2752 224.038 4.416C224.226 4.86186 224.555 5.97653 225.024 7.76L225.306 8.7456C225.329 8.93333 225.716 10.0832 226.467 12.1952L227.136 14.1312L227.77 15.7856C228.427 17.6395 228.849 18.7659 229.037 19.1648C229.858 21.6523 230.339 23.1541 230.48 23.6704C230.644 24.2805 230.902 25.0432 231.254 25.9584C231.63 26.8736 231.841 27.3899 231.888 27.5072ZM225.306 17.0528C225.611 17.0528 225.763 16.9707 225.763 16.8064C225.763 16.6891 225.681 16.4309 225.517 16.032C225.376 15.68 225.165 15.0229 224.883 14.0608C224.672 13.2864 224.461 12.6176 224.25 12.0544C224.015 11.3504 223.757 10.5173 223.475 9.5552C223.217 8.59306 223.064 7.9712 223.018 7.6896C222.666 6.44586 222.431 5.824 222.314 5.824C222.243 5.824 222.126 6.1408 221.962 6.7744L221.75 7.5488C221.586 8.1824 221.375 8.98026 221.117 9.9424C220.859 10.8811 220.624 11.6789 220.413 12.336C220.272 12.9461 220.072 13.7205 219.814 14.6592C219.58 15.5744 219.392 16.208 219.251 16.56C219.204 16.7008 219.181 16.7829 219.181 16.8064C219.181 16.9707 219.251 17.0763 219.392 17.1232C219.556 17.1701 219.709 17.1936 219.85 17.1936C220.014 17.1701 220.119 17.1584 220.166 17.1584L222.208 17.088C222.49 17.0411 222.889 17.0176 223.405 17.0176L225.306 17.0528Z" stroke="#212121" stroke-width="4" mask="url(#path-1-outside-1_1_10)"/>
<path d="M240.33 2.5152C240.846 2.5152 241.222 2.57386 241.457 2.6912C241.715 2.78506 241.914 2.96106 242.055 3.2192C242.29 3.712 242.583 4.3456 242.935 5.12L244.237 7.936L245.892 11.5616C246.197 12.2187 246.596 13.0869 247.089 14.1664C247.581 15.2459 247.933 15.9968 248.145 16.4192C248.544 17.2405 248.802 17.7451 248.919 17.9328L249.905 19.8688L250.996 22.016L250.925 19.9744L250.785 16.5248V15.4688C250.785 14.1781 250.808 12.8757 250.855 11.5616C250.855 10.576 250.843 9.77813 250.82 9.168L250.785 6.4928L250.925 3.1136C250.925 2.7616 251.101 2.5856 251.453 2.5856C251.571 2.5856 251.805 2.6208 252.157 2.6912C252.369 2.73813 252.592 2.7616 252.826 2.7616C253.061 2.7616 253.249 2.7616 253.389 2.7616C253.577 2.7616 253.694 2.78506 253.741 2.832C253.812 2.87893 253.847 2.96106 253.847 3.0784C253.847 3.17226 253.835 3.27786 253.812 3.3952C253.788 3.51253 253.777 3.6416 253.777 3.7824L253.741 6.8096L253.671 13.92L253.636 14.9408C253.636 15.7387 253.648 16.4661 253.671 17.1232C253.694 17.7803 253.718 18.32 253.741 18.7424C253.812 19.7515 253.847 20.5963 253.847 21.2768C253.847 21.1829 253.882 22.5792 253.953 25.4656L254.023 27.4368V27.5072C254.023 27.9765 253.8 28.1877 253.354 28.1408C253.284 28.1173 253.143 28.1056 252.932 28.1056L251.911 28.1408H251.7C251.536 28.1408 251.406 28.1056 251.313 28.0352C251.242 27.9648 251.113 27.7653 250.925 27.4368C250.855 27.2725 250.761 27.0379 250.644 26.7328C250.526 26.4277 250.386 26.0875 250.221 25.712C249.212 23.1776 248.485 21.4528 248.039 20.5376C247.523 19.552 246.22 16.7243 244.132 12.0544C243.662 11.0923 243.134 10.0715 242.548 8.992L241.527 7.1616L241.633 10.5056L241.668 12.5824C241.715 14.1312 241.738 15.152 241.738 15.6448C241.738 17.5691 241.773 19.5051 241.844 21.4528L241.879 24.1984C241.879 24.6912 241.902 25.4069 241.949 26.3456L242.02 27.5776V27.648C242.02 27.8827 241.961 28.0352 241.844 28.1056C241.726 28.176 241.562 28.2112 241.351 28.2112L240.577 28.2464C240.084 28.3168 239.556 28.352 238.993 28.352C238.336 28.352 237.796 28.3637 237.373 28.3872L235.578 28.4224C235.226 28.4224 234.992 28.352 234.874 28.2112C234.757 28.0939 234.686 27.9531 234.663 27.7888C234.64 27.6245 234.616 27.5072 234.593 27.4368C234.499 27.0144 234.452 26.4981 234.452 25.888C234.452 25.3248 234.464 24.8437 234.487 24.4448C234.487 23.2245 234.51 21.8048 234.557 20.1856C234.604 18.5429 234.663 17.3696 234.733 16.6656L234.909 14.1664C235.191 10.2709 235.332 8.0768 235.332 7.584C235.332 5.73013 235.367 4.3456 235.437 3.4304C235.484 2.7968 235.813 2.48 236.423 2.48C236.611 2.48 236.787 2.49173 236.951 2.5152C237.115 2.53866 237.244 2.5504 237.338 2.5504L240.33 2.5152Z" stroke="#212121" stroke-width="4" mask="url(#path-1-outside-1_1_10)"/>
<path d="M276.226 27.296C276.344 27.5307 276.402 27.6832 276.402 27.7536C276.402 27.9413 276.191 28.0352 275.769 28.0352H273.234C273.141 28.0352 273.047 27.9531 272.953 27.7888C272.859 27.6245 272.777 27.4603 272.706 27.296C272.636 27.1317 272.577 26.9909 272.53 26.8736C272.413 26.6389 272.19 26.0992 271.862 25.2544C271.557 24.4096 271.322 23.7408 271.158 23.248C271.087 23.0133 270.946 22.6731 270.735 22.2272C270.524 21.7579 270.372 21.4293 270.278 21.2416C270.184 20.96 270.09 20.7723 269.996 20.6784C269.926 20.5845 269.808 20.5376 269.644 20.5376C269.48 20.5376 269.269 20.5493 269.01 20.5728C268.776 20.5963 268.518 20.6197 268.236 20.6432C268.048 20.6901 267.462 20.7136 266.476 20.7136C265.796 20.7136 265.127 20.7371 264.47 20.784C264.258 20.8075 263.883 20.8192 263.343 20.8192L261.478 20.784C261.36 20.784 261.266 20.8309 261.196 20.9248C261.149 21.0187 261.114 21.136 261.09 21.2768C261.067 21.3941 261.044 21.488 261.02 21.5584L260.809 22.4384C260.738 22.7669 260.645 23.1541 260.527 23.6C260.433 24.0224 260.351 24.4213 260.281 24.7968L259.894 26.3104L259.612 27.3312C259.542 27.6128 259.471 27.8005 259.401 27.8944C259.354 27.9648 259.272 28 259.154 28H257.078C256.96 28 256.902 27.9531 256.902 27.8592C256.902 27.8123 256.949 27.648 257.042 27.3664C257.23 26.9205 257.394 26.4747 257.535 26.0288C258.404 23.1189 258.92 21.2181 259.084 20.3264C259.295 19.1531 259.729 17.6395 260.386 15.7856C260.598 14.9877 260.797 14.2603 260.985 13.6032C261.055 13.2747 261.161 12.8757 261.302 12.4064C261.748 10.7637 262.193 9.22666 262.639 7.7952L263.519 4.9792C263.707 4.25173 263.942 3.5008 264.223 2.7264C264.364 2.3744 264.528 2.29226 264.716 2.48C264.857 2.57386 264.962 2.73813 265.033 2.9728C265.103 3.20746 265.15 3.37173 265.174 3.4656C265.244 3.7472 265.866 5.1552 267.039 7.6896C267.509 8.65173 268.013 9.9072 268.553 11.456C268.788 12.1365 269.433 13.6032 270.489 15.856C271.029 16.9589 271.381 17.7216 271.545 18.144C271.92 18.9653 272.929 20.96 274.572 24.128L274.994 25.008C275.534 26.2048 275.945 26.9675 276.226 27.296ZM267.004 15.68C267.168 15.6565 267.309 15.6448 267.426 15.6448C267.544 15.6448 267.638 15.6331 267.708 15.6096C267.778 15.5861 267.814 15.5509 267.814 15.504C267.814 15.4571 267.778 15.3632 267.708 15.2224C267.591 15.0112 267.321 14.4245 266.898 13.4624C266.476 12.4768 266.183 11.7376 266.018 11.2448C265.784 10.6816 265.596 10.2123 265.455 9.8368C265.338 9.46133 265.244 9.2032 265.174 9.0624C265.127 8.94506 265.068 8.82773 264.998 8.7104C264.951 8.59306 264.904 8.4992 264.857 8.4288C264.81 8.3584 264.763 8.3232 264.716 8.3232C264.646 8.3232 264.564 8.4992 264.47 8.8512C264.399 9.2032 264.341 9.47306 264.294 9.6608C263.871 11.0219 263.566 12.0544 263.378 12.7584C263.285 13.1104 263.144 13.5445 262.956 14.0608C262.792 14.5536 262.674 14.8939 262.604 15.0816C262.534 15.3163 262.498 15.504 262.498 15.6448C262.498 15.7856 262.604 15.856 262.815 15.856C263.308 15.856 264.059 15.8443 265.068 15.8208C266.101 15.7739 266.746 15.7269 267.004 15.68Z" stroke="#212121" stroke-width="4" mask="url(#path-1-outside-1_1_10)"/>
</svg>
