<svg width="208" height="24" viewBox="0 0 208 24" fill="none" xmlns="http://www.w3.org/2000/svg">
<mask id="path-1-outside-1_2_11" maskUnits="userSpaceOnUse" x="0.533997" y="0.0776367" width="207" height="24" fill="black">
<rect fill="white" x="0.533997" y="0.0776367" width="207" height="24"/>
<path d="M6.876 2.17598C7.25733 2.17598 7.53466 2.21932 7.708 2.30598C7.89866 2.37532 8.046 2.50532 8.15 2.69598C8.32333 3.05998 8.54 3.52798 8.8 4.09998L9.762 6.17998L10.984 8.85799C11.2093 9.34332 11.504 9.98465 11.868 10.782C12.232 11.5793 12.492 12.134 12.648 12.446C12.9427 13.0527 13.1333 13.4253 13.22 13.564L13.948 14.994L14.754 16.58L14.702 15.072L14.598 12.524V11.744C14.598 10.7907 14.6153 9.82865 14.65 8.85799C14.65 8.12999 14.6413 7.54065 14.624 7.08998L14.598 5.11399L14.702 2.61798C14.702 2.35798 14.832 2.22798 15.092 2.22798C15.1787 2.22798 15.352 2.25398 15.612 2.30598C15.768 2.34065 15.9327 2.35799 16.106 2.35799C16.2793 2.35799 16.418 2.35799 16.522 2.35799C16.6607 2.35799 16.7473 2.37532 16.782 2.40998C16.834 2.44465 16.86 2.50532 16.86 2.59199C16.86 2.66132 16.8513 2.73932 16.834 2.82598C16.8167 2.91265 16.808 3.00799 16.808 3.11198L16.782 5.34798L16.73 10.6L16.704 11.354C16.704 11.9433 16.7127 12.4807 16.73 12.966C16.7473 13.4513 16.7647 13.85 16.782 14.162C16.834 14.9073 16.86 15.5313 16.86 16.034C16.86 15.9647 16.886 16.996 16.938 19.128L16.99 20.584V20.636C16.99 20.9827 16.8253 21.1387 16.496 21.104C16.444 21.0867 16.34 21.078 16.184 21.078L15.43 21.104H15.274C15.1527 21.104 15.0573 21.078 14.988 21.026C14.936 20.974 14.8407 20.8267 14.702 20.584C14.65 20.4627 14.5807 20.2893 14.494 20.064C14.4073 19.8387 14.3033 19.5873 14.182 19.31C13.4367 17.438 12.8993 16.164 12.57 15.488C12.1887 14.76 11.2267 12.6713 9.684 9.22199C9.33733 8.51132 8.94733 7.75732 8.514 6.95998L7.76 5.60799L7.838 8.07799L7.864 9.61198C7.89866 10.756 7.916 11.51 7.916 11.874C7.916 13.2953 7.942 14.7253 7.994 16.164L8.02 18.192C8.02 18.556 8.03733 19.0847 8.072 19.778L8.124 20.688V20.74C8.124 20.9133 8.08066 21.026 7.994 21.078C7.90733 21.13 7.786 21.156 7.63 21.156L7.058 21.182C6.694 21.234 6.304 21.26 5.888 21.26C5.40266 21.26 5.004 21.2687 4.692 21.286L3.366 21.312C3.106 21.312 2.93266 21.26 2.846 21.156C2.75933 21.0693 2.70733 20.9653 2.69 20.844C2.67266 20.7227 2.65533 20.636 2.638 20.584C2.56866 20.272 2.534 19.8907 2.534 19.44C2.534 19.024 2.54266 18.6687 2.56 18.374C2.56 17.4727 2.57733 16.424 2.612 15.228C2.64666 14.0146 2.69 13.148 2.742 12.628L2.872 10.782C3.08 7.90465 3.184 6.28398 3.184 5.91998C3.184 4.55065 3.21 3.52798 3.262 2.85198C3.29666 2.38398 3.53933 2.14998 3.99 2.14998C4.12866 2.14998 4.25866 2.15865 4.38 2.17598C4.50133 2.19332 4.59666 2.20198 4.666 2.20198L6.876 2.17598Z"/>
<path d="M31.3883 20.636C31.4403 20.7573 31.4663 20.844 31.4663 20.896C31.4663 20.9653 31.371 21 31.1803 21H29.7243C29.655 21 29.5943 20.9913 29.5423 20.974C29.5076 20.9393 29.473 20.87 29.4383 20.766C29.369 20.5753 29.2736 20.2633 29.1523 19.83C28.9963 19.3967 28.8923 19.0067 28.8403 18.66C28.7883 18.4 28.7016 18.088 28.5803 17.724C28.4763 17.36 28.381 17.0827 28.2943 16.892C28.1383 16.5627 27.9996 16.19 27.8783 15.774L27.6443 15.02C27.5576 14.8293 27.4883 14.7167 27.4363 14.682C27.4016 14.63 27.3323 14.604 27.2283 14.604C26.8643 14.604 26.5956 14.6127 26.4223 14.63L25.3043 14.682C25.1656 14.6993 24.5243 14.708 23.3803 14.708H21.7943H21.7423C21.6383 14.708 21.5603 14.8033 21.5083 14.994L21.4563 15.254L21.3523 15.748C21.3176 15.8347 21.205 16.3373 21.0143 17.256C20.9623 17.5507 20.8756 17.932 20.7543 18.4C20.7196 18.7467 20.6416 19.0327 20.5203 19.258C20.4856 19.31 20.4423 19.4313 20.3903 19.622C20.3383 19.8127 20.295 19.9687 20.2603 20.09C20.2083 20.2287 20.1476 20.454 20.0783 20.766C20.061 20.7833 20.0436 20.8267 20.0263 20.896C20.009 20.948 19.983 20.9827 19.9483 21C19.9136 21 19.8616 21 19.7923 21H19.2723C19.1163 21 19.073 20.8873 19.1423 20.662C19.1423 20.61 19.151 20.5667 19.1683 20.532C19.1683 20.4973 19.177 20.454 19.1943 20.402C19.2116 20.35 19.2376 20.272 19.2723 20.168L19.5063 19.206C19.541 19.102 19.6016 18.92 19.6883 18.66C19.775 18.4 19.8356 18.1573 19.8703 17.932C19.957 17.516 20.1216 16.8833 20.3643 16.034L20.5723 15.306C20.9016 14.2313 21.1096 13.4773 21.1963 13.044L21.5603 11.666C21.7336 11.094 21.8376 10.73 21.8723 10.574C21.9936 10.054 22.167 9.40398 22.3923 8.62398L22.5743 7.89599L22.7303 7.34998C22.9036 6.76065 23.051 6.33599 23.1723 6.07599C23.207 5.97198 23.3283 5.61665 23.5363 5.00998C23.7616 4.38598 23.909 3.89198 23.9783 3.52798C24.0996 3.11198 24.221 2.79998 24.3423 2.59199C24.481 2.38398 24.663 2.27998 24.8883 2.27998C24.975 2.27998 25.0616 2.35798 25.1483 2.51398C25.235 2.66998 25.3216 2.86065 25.4083 3.08598C25.495 3.31132 25.5556 3.47598 25.5903 3.57998C25.729 3.90932 25.9716 4.73265 26.3183 6.04998L26.5263 6.77798C26.5436 6.91665 26.8296 7.76598 27.3843 9.32598L27.8783 10.756L28.3463 11.978C28.8316 13.3473 29.1436 14.1793 29.2823 14.474C29.889 16.3113 30.2443 17.4207 30.3483 17.802C30.4696 18.2527 30.6603 18.816 30.9203 19.492C31.1976 20.168 31.3536 20.5493 31.3883 20.636ZM26.5263 12.914C26.7516 12.914 26.8643 12.8533 26.8643 12.732C26.8643 12.6453 26.8036 12.4547 26.6823 12.16C26.5783 11.9 26.4223 11.4147 26.2143 10.704C26.0583 10.132 25.9023 9.63799 25.7463 9.22199C25.573 8.70199 25.3823 8.08665 25.1743 7.37598C24.9836 6.66532 24.871 6.20598 24.8363 5.99798C24.5763 5.07932 24.403 4.61998 24.3163 4.61998C24.2643 4.61998 24.1776 4.85398 24.0563 5.32198L23.9003 5.89398C23.779 6.36198 23.623 6.95132 23.4323 7.66198C23.2416 8.35532 23.0683 8.94465 22.9123 9.42998C22.8083 9.88065 22.661 10.4527 22.4703 11.146C22.297 11.822 22.1583 12.29 22.0543 12.55C22.0196 12.654 22.0023 12.7147 22.0023 12.732C22.0023 12.8533 22.0543 12.9313 22.1583 12.966C22.2796 13.0007 22.3923 13.018 22.4963 13.018C22.6176 13.0007 22.6956 12.992 22.7303 12.992L24.2383 12.94C24.4463 12.9053 24.741 12.888 25.1223 12.888L26.5263 12.914Z"/>
<path d="M38.898 2.66998C40.406 2.66998 41.524 2.96465 42.252 3.55399C42.98 4.14332 43.3614 4.45532 43.396 4.48998C43.5694 4.61132 43.656 4.73265 43.656 4.85398C43.656 4.92332 43.6214 4.99265 43.552 5.06198C43.5 5.13132 43.396 5.27865 43.24 5.50398C43.084 5.72932 42.9627 5.84199 42.876 5.84199C42.7894 5.84199 42.6767 5.79865 42.538 5.71199L42.356 5.55598C41.0387 4.60265 39.912 4.12598 38.976 4.12598C37.78 4.12598 36.87 4.40332 36.246 4.95798C35.6394 5.49532 35.336 6.17998 35.336 7.01198C35.336 7.72265 35.5874 8.32932 36.09 8.83198C36.61 9.33465 37.286 9.81132 38.118 10.262C38.3607 10.366 38.612 10.4613 38.872 10.548C39.7387 10.8773 40.4927 11.2327 41.134 11.614C41.7927 11.978 42.382 12.5413 42.902 13.304C43.422 14.0493 43.682 14.994 43.682 16.138C43.682 18.0967 43.0147 19.44 41.68 20.168C40.3454 20.8787 38.8547 21.234 37.208 21.234C36.2547 21.234 35.388 21.0173 34.608 20.584C33.8454 20.1507 33.2994 19.7693 32.97 19.44C32.7967 19.284 32.7534 19.128 32.84 18.972C32.8574 18.9373 32.9267 18.7987 33.048 18.556C33.1867 18.3133 33.308 18.192 33.412 18.192H33.464C33.516 18.192 33.5594 18.2093 33.594 18.244C33.646 18.2613 33.698 18.3047 33.75 18.374C33.8194 18.4433 33.8974 18.5213 33.984 18.608C34.2094 18.8333 34.6514 19.0933 35.31 19.388C35.9687 19.6653 36.5147 19.804 36.948 19.804C37.8667 19.804 38.742 19.6133 39.574 19.232C40.406 18.8333 40.822 18.0013 40.822 16.736C40.822 16.1987 40.5794 15.7307 40.094 15.332C39.626 14.9333 38.8894 14.4653 37.884 13.928L36.766 13.304C35.5527 12.6107 34.5994 11.8653 33.906 11.068C33.23 10.2707 32.892 9.22198 32.892 7.92198C32.892 6.84732 33.1954 5.91132 33.802 5.11399C34.426 4.31665 35.1974 3.70998 36.116 3.29398C37.052 2.87798 37.9794 2.66998 38.898 2.66998Z"/>
<path d="M57.3562 3.99598C57.3562 4.39465 57.3215 4.59398 57.2522 4.59398C57.1482 4.59398 57.0269 4.58532 56.8882 4.56798C56.7669 4.53332 56.6109 4.51599 56.4202 4.51599H52.2602L49.0362 4.48998C48.9322 4.48998 48.5422 4.51598 47.8662 4.56798L47.2682 4.61998L47.2162 5.32198C47.1989 5.58198 47.1902 5.98932 47.1902 6.54398C47.1902 6.82132 47.2075 7.18532 47.2422 7.63598C47.2769 8.05198 47.2942 8.35532 47.2942 8.54598V9.58598C47.2942 9.86332 47.3029 10.08 47.3202 10.236C47.4762 10.2533 47.7102 10.262 48.0222 10.262H49.0622C49.1662 10.262 49.3742 10.2447 49.6862 10.21C50.1369 10.1753 50.5269 10.158 50.8562 10.158C50.9949 10.158 51.4802 10.184 52.3122 10.236L52.8842 10.262C53.0229 10.262 53.2222 10.2533 53.4822 10.236C53.7422 10.2013 53.9935 10.184 54.2362 10.184L55.0942 10.21C55.5449 10.2447 55.8569 10.262 56.0302 10.262C56.2209 10.262 56.3509 10.2533 56.4202 10.236L56.5762 10.21C56.6975 10.21 56.7842 10.2533 56.8362 10.34C56.8882 10.4093 56.9055 10.4787 56.8882 10.548C56.8709 10.6693 56.8622 10.8253 56.8622 11.016C56.8622 11.1893 56.8535 11.3453 56.8362 11.484C56.8189 11.6227 56.7929 11.7093 56.7582 11.744C56.7236 11.7613 56.6195 11.77 56.4462 11.77L55.4062 11.666C54.1062 11.5447 53.2569 11.484 52.8582 11.484C51.3849 11.484 50.3015 11.51 49.6082 11.562C49.3309 11.5967 49.0275 11.614 48.6982 11.614C48.3689 11.614 48.1609 11.614 48.0742 11.614C47.7449 11.614 47.5022 11.6053 47.3462 11.588L47.2682 12.004C47.2335 12.316 47.2162 12.5933 47.2162 12.836C47.2162 13.044 47.2335 13.2867 47.2682 13.564C47.3029 13.8413 47.3202 14.084 47.3202 14.292L47.3462 17.386L47.3202 18.686C47.3029 18.842 47.2942 19.0587 47.2942 19.336C47.5195 19.3533 47.8489 19.362 48.2822 19.362C48.6462 19.3793 49.2095 19.388 49.9722 19.388L51.3762 19.414C51.6709 19.4313 52.1215 19.44 52.7282 19.44C53.0922 19.44 53.5689 19.4227 54.1582 19.388L55.2502 19.362C55.6662 19.362 56.0129 19.3707 56.2902 19.388C56.5675 19.4053 56.7755 19.414 56.9142 19.414C57.0529 19.414 57.1309 19.44 57.1482 19.492C57.1829 19.544 57.2002 19.6567 57.2002 19.83C57.2002 19.9513 57.1916 20.0813 57.1742 20.22C57.1569 20.3413 57.1482 20.48 57.1482 20.636C57.1482 20.7573 57.1049 20.844 57.0182 20.896C56.9315 20.9307 56.7929 20.948 56.6022 20.948C56.4115 20.948 56.2555 20.9393 56.1342 20.922C55.6662 20.87 54.7216 20.844 53.3002 20.844C52.4336 20.844 51.8095 20.8527 51.4282 20.87C51.1335 20.8873 50.6482 20.896 49.9722 20.896L47.5542 20.87C47.2769 20.8527 46.9475 20.844 46.5662 20.844C46.3235 20.844 46.1589 20.818 46.0722 20.766C46.0029 20.6967 45.9682 20.5927 45.9682 20.454L45.9942 20.038C46.0115 19.9687 46.0202 19.8907 46.0202 19.804C46.0202 19.752 46.0115 19.6307 45.9942 19.44C45.9769 19.232 45.9682 18.8593 45.9682 18.322C45.9682 17.802 45.9509 16.9527 45.9162 15.774C45.8642 14.8033 45.8382 13.8673 45.8382 12.966C45.8382 12.5847 45.8815 11.484 45.9682 9.66398C45.9855 9.29998 46.0029 8.93598 46.0202 8.57198C46.0375 8.20798 46.0462 7.87865 46.0462 7.58398C46.0462 5.57332 46.0202 4.24732 45.9682 3.60598C45.9162 3.18998 46.1675 2.98198 46.7222 2.98198C46.8609 2.98198 47.0862 2.99932 47.3982 3.03398C47.6755 3.06865 47.8836 3.08598 48.0222 3.08598L49.6602 3.03398C50.8389 2.96465 51.7489 2.92998 52.3902 2.92998C53.1356 2.92998 54.1842 2.94732 55.5362 2.98198C55.9695 2.99932 56.4289 3.00798 56.9142 3.00798C57.1222 3.00798 57.2522 3.05998 57.3042 3.16398C57.3562 3.26798 57.3735 3.38065 57.3562 3.50198C57.3562 3.60598 57.3562 3.67532 57.3562 3.70998V3.99598Z"/>
<path d="M71.3635 20.272C71.6062 20.6533 71.7275 20.9047 71.7275 21.026C71.7275 21.0953 71.6842 21.1387 71.5975 21.156C71.5109 21.1733 71.4329 21.182 71.3635 21.182C71.3115 21.182 71.2682 21.182 71.2335 21.182L68.2955 21.26C68.1569 21.26 68.0442 21.1993 67.9575 21.078C67.8882 20.9567 67.7842 20.74 67.6455 20.428C67.5588 20.168 67.4028 19.8213 67.1775 19.388C66.8308 18.764 66.2328 17.594 65.3835 15.878L64.0575 13.304L64.1355 14.682L64.2655 16.658C64.3695 18.9807 64.4562 20.2633 64.5255 20.506C64.5428 20.5753 64.5515 20.662 64.5515 20.766C64.5515 21.078 64.3868 21.234 64.0575 21.234C63.9535 21.234 63.8668 21.2253 63.7975 21.208C63.5202 21.1733 62.8442 21.208 61.7695 21.312C61.0415 21.3813 60.5995 21.416 60.4435 21.416C60.2182 21.416 60.0622 21.3727 59.9755 21.286C59.9062 21.1993 59.8715 21.052 59.8715 20.844L59.8975 20.246L59.8455 18.738C59.7415 16.9353 59.6895 15.3667 59.6895 14.032C59.6895 13.3387 59.7155 12.862 59.7675 12.602C59.8542 12.1687 59.8975 10.9467 59.8975 8.93599C59.8975 6.83865 59.8628 5.25265 59.7935 4.17798C59.7762 4.03932 59.7675 3.84865 59.7675 3.60598C59.7675 3.32865 59.7935 3.12932 59.8455 3.00798C59.8975 2.88665 59.9495 2.82598 60.0015 2.82598C60.0708 2.80865 60.1835 2.79998 60.3395 2.79998L60.9115 2.74798C62.1075 2.60932 63.0608 2.53998 63.7715 2.53998C65.7128 2.53998 67.1689 3.04265 68.1395 4.04799C69.1275 5.03598 69.6215 6.32732 69.6215 7.92198C69.6215 9.18732 69.2142 10.4007 68.3995 11.562C68.0528 12.0647 67.6542 12.5153 67.2035 12.914L69.0235 16.216C70.3582 18.608 71.1382 19.96 71.3635 20.272ZM63.9015 9.84598C64.1615 9.84598 64.3955 9.79399 64.6035 9.68998C65.0888 9.46465 65.3315 9.00532 65.3315 8.31198C65.3315 7.80932 65.2535 7.43665 65.0975 7.19398C64.9415 6.95132 64.7422 6.82999 64.4995 6.82999C64.3088 6.82999 64.1442 6.89932 64.0055 7.03799C63.9882 7.05532 63.9882 7.17665 64.0055 7.40199C64.0228 7.62732 64.0315 7.85265 64.0315 8.07799C64.0315 8.26865 64.0228 8.40732 64.0055 8.49398C63.9362 8.78865 63.9015 9.09198 63.9015 9.40398L63.8755 9.63798L63.9015 9.84598Z"/>
<path d="M92.9352 20.636C92.9872 20.7573 93.0132 20.844 93.0132 20.896C93.0132 20.9653 92.9179 21 92.7272 21H91.2712C91.2019 21 91.1412 20.9913 91.0892 20.974C91.0545 20.9393 91.0199 20.87 90.9852 20.766C90.9159 20.5753 90.8205 20.2633 90.6992 19.83C90.5432 19.3967 90.4392 19.0067 90.3872 18.66C90.3352 18.4 90.2485 18.088 90.1272 17.724C90.0232 17.36 89.9279 17.0827 89.8412 16.892C89.6852 16.5627 89.5465 16.19 89.4252 15.774L89.1912 15.02C89.1045 14.8293 89.0352 14.7167 88.9832 14.682C88.9485 14.63 88.8792 14.604 88.7752 14.604C88.4112 14.604 88.1425 14.6127 87.9692 14.63L86.8512 14.682C86.7125 14.6993 86.0712 14.708 84.9272 14.708H83.3412H83.2892C83.1852 14.708 83.1072 14.8033 83.0552 14.994L83.0032 15.254L82.8992 15.748C82.8645 15.8347 82.7519 16.3373 82.5612 17.256C82.5092 17.5507 82.4225 17.932 82.3012 18.4C82.2665 18.7467 82.1885 19.0327 82.0672 19.258C82.0325 19.31 81.9892 19.4313 81.9372 19.622C81.8852 19.8127 81.8419 19.9687 81.8072 20.09C81.7552 20.2287 81.6945 20.454 81.6252 20.766C81.6079 20.7833 81.5905 20.8267 81.5732 20.896C81.5559 20.948 81.5299 20.9827 81.4952 21C81.4605 21 81.4085 21 81.3392 21H80.8192C80.6632 21 80.6199 20.8873 80.6892 20.662C80.6892 20.61 80.6979 20.5667 80.7152 20.532C80.7152 20.4973 80.7239 20.454 80.7412 20.402C80.7585 20.35 80.7845 20.272 80.8192 20.168L81.0532 19.206C81.0879 19.102 81.1485 18.92 81.2352 18.66C81.3219 18.4 81.3825 18.1573 81.4172 17.932C81.5039 17.516 81.6685 16.8833 81.9112 16.034L82.1192 15.306C82.4485 14.2313 82.6565 13.4773 82.7432 13.044L83.1072 11.666C83.2805 11.094 83.3845 10.73 83.4192 10.574C83.5405 10.054 83.7139 9.40398 83.9392 8.62398L84.1212 7.89599L84.2772 7.34998C84.4505 6.76065 84.5979 6.33599 84.7192 6.07599C84.7539 5.97198 84.8752 5.61665 85.0832 5.00998C85.3085 4.38598 85.4559 3.89198 85.5252 3.52798C85.6465 3.11198 85.7679 2.79998 85.8892 2.59199C86.0279 2.38398 86.2099 2.27998 86.4352 2.27998C86.5219 2.27998 86.6085 2.35798 86.6952 2.51398C86.7819 2.66998 86.8685 2.86065 86.9552 3.08598C87.0419 3.31132 87.1025 3.47598 87.1372 3.57998C87.2759 3.90932 87.5185 4.73265 87.8652 6.04998L88.0732 6.77798C88.0905 6.91665 88.3765 7.76598 88.9312 9.32598L89.4252 10.756L89.8932 11.978C90.3785 13.3473 90.6905 14.1793 90.8292 14.474C91.4359 16.3113 91.7912 17.4207 91.8952 17.802C92.0165 18.2527 92.2072 18.816 92.4672 19.492C92.7445 20.168 92.9005 20.5493 92.9352 20.636ZM88.0732 12.914C88.2985 12.914 88.4112 12.8533 88.4112 12.732C88.4112 12.6453 88.3505 12.4547 88.2292 12.16C88.1252 11.9 87.9692 11.4147 87.7612 10.704C87.6052 10.132 87.4492 9.63799 87.2932 9.22199C87.1199 8.70199 86.9292 8.08665 86.7212 7.37598C86.5305 6.66532 86.4179 6.20598 86.3832 5.99798C86.1232 5.07932 85.9499 4.61998 85.8632 4.61998C85.8112 4.61998 85.7245 4.85398 85.6032 5.32198L85.4472 5.89398C85.3259 6.36198 85.1699 6.95132 84.9792 7.66198C84.7885 8.35532 84.6152 8.94465 84.4592 9.42998C84.3552 9.88065 84.2079 10.4527 84.0172 11.146C83.8439 11.822 83.7052 12.29 83.6012 12.55C83.5665 12.654 83.5492 12.7147 83.5492 12.732C83.5492 12.8533 83.6012 12.9313 83.7052 12.966C83.8265 13.0007 83.9392 13.018 84.0432 13.018C84.1645 13.0007 84.2425 12.992 84.2772 12.992L85.7852 12.94C85.9932 12.9053 86.2879 12.888 86.6692 12.888L88.0732 12.914Z"/>
<path d="M97.1429 4.51599C97.0563 6.94265 97.0129 8.25998 97.0129 8.46798L96.9869 12.186C96.9869 12.5153 96.9956 12.8013 97.0129 13.044L97.0389 14.604C97.0389 14.968 97.0303 15.1933 97.0129 15.28C96.9956 15.384 96.9869 15.4793 96.9869 15.566C97.0043 15.6527 97.0129 15.7133 97.0129 15.748C97.0129 15.8173 97.0216 15.8607 97.0389 15.878L97.6629 15.93C98.2176 15.9647 98.6769 15.9733 99.0409 15.956L103.851 15.904C103.851 15.904 104.761 15.93 106.581 15.982L107.803 16.008C107.994 16.0253 108.089 16.0773 108.089 16.164C108.089 16.1987 108.08 16.242 108.063 16.294C108.046 16.346 108.037 16.398 108.037 16.45V17.646C108.037 17.958 108.089 18.6167 108.193 19.622L108.297 20.714L108.323 20.844C108.323 20.9307 108.28 20.9827 108.193 21C108.106 21.0347 107.95 21.052 107.725 21.052L105.827 21.026L102.603 20.974C102.17 20.974 101.563 21 100.783 21.052C100.436 21.0693 100.046 21.0867 99.6129 21.104C99.1969 21.1213 98.7809 21.13 98.3649 21.13L97.9229 21.104C97.8189 21.0867 97.6196 21.078 97.3249 21.078L96.1549 21.104C95.9469 21.1213 95.6783 21.13 95.3489 21.13C95.1236 21.13 94.9849 21.0953 94.9329 21.026C94.8983 20.974 94.8809 20.8873 94.8809 20.766C94.8983 20.6447 94.9069 20.5407 94.9069 20.454C94.9069 20.0727 94.9329 19.414 94.9849 18.478L95.0629 15.8L95.0109 14.578C94.9936 14.3353 94.9763 14.0493 94.9589 13.72C94.9416 13.3733 94.9329 13.018 94.9329 12.654C94.9329 13.2433 94.9849 12.654 95.0889 10.886C95.1929 9.10065 95.2449 7.99999 95.2449 7.58398L95.2189 4.64599L95.1669 2.98198V2.95599C95.1669 2.81732 95.2623 2.74798 95.4529 2.74798L95.8169 2.77398C95.9036 2.77398 96.0163 2.78265 96.1549 2.79998C96.2936 2.79998 96.5103 2.79998 96.8049 2.79998H97.0389C97.1429 2.79998 97.1949 2.86932 97.1949 3.00798L97.1429 4.51599Z"/>
<path d="M113.214 4.04799C113.3 4.51599 113.5 5.16598 113.812 5.99798C114.141 6.82998 114.453 7.55798 114.748 8.18198C114.99 8.59798 115.311 9.27398 115.71 10.21C116.126 11.1287 116.42 11.8567 116.594 12.394C116.698 12.6713 116.845 13.018 117.036 13.434L117.426 14.37L117.972 15.592C118.474 14.604 118.838 13.8847 119.064 13.434L120.754 10.054L121.924 7.71398C122.53 6.46598 122.938 5.65998 123.146 5.29598C123.475 4.61998 123.822 3.99598 124.186 3.42398C124.55 2.83465 124.81 2.53998 124.966 2.53998C125.104 2.53998 125.174 2.65265 125.174 2.87798C125.174 3.08598 125.13 3.36332 125.044 3.70998L124.94 4.35998C124.87 4.82798 124.836 6.90798 124.836 10.6C124.836 11.4147 124.81 12.4027 124.758 13.564C124.723 14.7253 124.688 15.4967 124.654 15.878C124.619 16.3287 124.602 16.996 124.602 17.88L124.628 20.402V20.532C124.628 20.74 124.576 20.8267 124.472 20.792H124.42C124.333 20.792 124.229 20.8007 124.108 20.818C124.004 20.8353 123.891 20.844 123.77 20.844C123.7 20.8267 123.648 20.7833 123.614 20.714C123.596 20.6447 123.588 20.5233 123.588 20.35V18.816C123.588 17.048 123.605 16.008 123.64 15.696C123.674 15.332 123.709 14.656 123.744 13.668C123.796 12.68 123.822 11.8827 123.822 11.276C123.804 11.12 123.813 10.6347 123.848 9.81998L123.874 8.88399L123.926 7.01198C123.804 7.18532 123.7 7.36732 123.614 7.55798C123.44 7.85265 123.276 8.17332 123.12 8.51998L122.86 9.03999C122.565 9.61199 122.227 10.288 121.846 11.068C121.464 11.8307 121.135 12.4807 120.858 13.018C120.546 13.642 120.147 14.448 119.662 15.436C119.194 16.4067 118.83 17.178 118.57 17.75C118.119 18.8073 117.859 19.336 117.79 19.336C117.738 19.336 117.66 19.2493 117.556 19.076C117.452 18.9027 117.382 18.79 117.348 18.738C117.226 18.5473 117.036 18.1487 116.776 17.542C116.516 16.918 116.308 16.372 116.152 15.904C116.048 15.592 115.597 14.7167 114.8 13.278C114.176 12.082 113.855 11.458 113.838 11.406C113.664 11.0593 113.43 10.4787 113.136 9.66398C112.945 9.23065 112.798 8.84932 112.694 8.51998L112.642 9.66398L112.59 11.432L112.538 16.554L112.512 20.61C112.512 20.766 112.468 20.8613 112.382 20.896C112.295 20.9307 112.191 20.948 112.07 20.948C111.948 20.9307 111.853 20.922 111.784 20.922L111.212 20.948C110.9 20.9827 110.674 21 110.536 21C110.276 21 110.12 20.948 110.068 20.844C110.033 20.7227 110.024 20.48 110.042 20.116C110.042 19.544 110.033 18.998 110.016 18.478L109.964 15.28C109.964 14.7947 109.981 14.292 110.016 13.772C110.05 13.2347 110.076 12.758 110.094 12.342C110.18 11.094 110.224 10.2187 110.224 9.71598L110.276 4.82798L110.25 3.42398C110.25 2.81732 110.293 2.47065 110.38 2.38398C110.432 2.33198 110.492 2.30598 110.562 2.30598C110.614 2.30598 110.692 2.32332 110.796 2.35799C110.9 2.39265 111.03 2.40132 111.186 2.38398C111.342 2.36665 111.558 2.35799 111.836 2.35799C112.165 2.35799 112.408 2.37532 112.564 2.40998C112.72 2.46198 112.832 2.59198 112.902 2.79998C112.971 2.99065 113.032 3.21598 113.084 3.47598C113.136 3.71865 113.179 3.90932 113.214 4.04799Z"/>
<path d="M133.34 13.252C133.34 13.6333 133.358 13.9627 133.392 14.24C133.444 14.5173 133.574 14.786 133.782 15.046C134.008 15.2887 134.363 15.41 134.848 15.41C135.524 15.41 135.984 15.1587 136.226 14.656C136.469 14.136 136.59 13.5727 136.59 12.966L136.616 11.666C136.668 9.74198 136.694 8.66732 136.694 8.44198C136.694 7.95665 136.686 7.62732 136.668 7.45398C136.668 6.84732 136.634 5.91998 136.564 4.67198L136.512 3.24198C136.512 2.92998 136.556 2.71332 136.642 2.59199C136.729 2.47065 136.894 2.40998 137.136 2.40998H140.438L140.828 2.38398C141.002 2.38398 141.14 2.43598 141.244 2.53998C141.366 2.64398 141.444 2.85198 141.478 3.16398C141.513 3.45865 141.53 4.48132 141.53 6.23198L141.504 11.822C141.504 12.7927 141.348 13.9627 141.036 15.332C140.724 16.684 140.074 17.9407 139.086 19.102C138.098 20.2633 136.686 20.844 134.848 20.844C130.723 20.844 128.504 18.868 128.192 14.916C128.175 14.7427 128.166 14.396 128.166 13.876C128.166 13.3387 128.184 12.394 128.218 11.042C128.27 9.48198 128.288 8.32065 128.27 7.55798C128.27 6.51798 128.253 5.42598 128.218 4.28198C128.201 3.95265 128.192 3.61465 128.192 3.26798C128.192 3.19865 128.184 3.06865 128.166 2.87798C128.166 2.68732 128.201 2.54865 128.27 2.46198C128.357 2.37532 128.504 2.33198 128.712 2.33198L130.22 2.35799C130.567 2.35799 130.818 2.34932 130.974 2.33198C131.356 2.29732 131.668 2.27998 131.91 2.27998L132.95 2.30598C133.106 2.30598 133.202 2.34932 133.236 2.43598C133.288 2.50532 133.323 2.64398 133.34 2.85198V13.252Z"/>
<path d="M150.553 9.84598C150.917 9.84598 151.255 9.82865 151.567 9.79398C151.671 9.77665 151.835 9.76798 152.061 9.76798C152.303 9.76798 152.485 9.77665 152.607 9.79398L153.205 9.84598L153.283 9.06598L153.361 7.81798L153.413 5.26998L153.465 3.26798C153.482 3.00798 153.517 2.83465 153.569 2.74798C153.621 2.66132 153.742 2.60932 153.933 2.59199C154.106 2.59199 154.591 2.53998 155.389 2.43598C155.527 2.41865 155.779 2.40998 156.143 2.40998C156.697 2.40998 157.157 2.43598 157.521 2.48799C157.711 2.52265 157.824 2.56598 157.859 2.61798C157.911 2.65265 157.937 2.72198 157.937 2.82598C157.954 2.92998 157.971 3.02532 157.989 3.11198C157.989 3.38932 157.963 3.85732 157.911 4.51599C157.841 5.72932 157.807 6.56132 157.807 7.01198C157.807 7.23732 157.755 7.95665 157.651 9.16999C157.547 10.4873 157.495 11.3453 157.495 11.744L157.547 16.892C157.547 18.8333 157.581 20.0207 157.651 20.454V20.506C157.651 20.6967 157.616 20.818 157.547 20.87C157.477 20.9047 157.399 20.922 157.313 20.922C157.226 20.9047 157.165 20.896 157.131 20.896C156.992 20.8613 156.819 20.844 156.611 20.844C156.541 20.844 156.316 20.8613 155.935 20.896C155.449 20.948 154.669 20.974 153.595 20.974H153.543C153.3 20.974 153.179 20.896 153.179 20.74C153.179 20.4107 153.17 19.7607 153.153 18.79C153.153 17.8193 153.127 17.1087 153.075 16.658C153.04 15.9993 153.023 15.358 153.023 14.734C153.005 14.474 152.997 14.0753 152.997 13.538H152.243L151.125 13.564L150.657 13.59L150.137 13.564C149.877 13.564 149.669 13.5553 149.513 13.538L149.435 15.176C149.383 15.7827 149.357 16.5713 149.357 17.542V18.868C149.357 19.804 149.374 20.3673 149.409 20.558C149.443 20.766 149.409 20.896 149.305 20.948C149.218 20.9827 149.105 21 148.967 21C148.845 21 148.759 21 148.707 21C148.568 20.9827 148.334 20.9653 148.005 20.948C147.675 20.9133 147.407 20.896 147.199 20.896L146.445 20.948C146.323 20.9653 145.873 21 145.093 21.052C144.694 21.104 144.495 20.8613 144.495 20.324L144.521 19.31L144.573 17.438C144.573 17.0567 144.581 16.7013 144.599 16.372L144.625 13.356C144.625 12.6627 144.616 12.2207 144.599 12.03C144.547 11.6313 144.521 11.1113 144.521 10.47L144.547 8.88399C144.564 8.62398 144.573 8.28598 144.573 7.86999C144.573 7.38465 144.625 6.37932 144.729 4.85398L144.807 3.05998C144.807 2.92132 144.833 2.82598 144.885 2.77398C144.937 2.72198 145.015 2.69598 145.119 2.69598L145.457 2.72198C145.682 2.75665 145.977 2.78265 146.341 2.79998C146.705 2.81732 147.06 2.82598 147.407 2.82598L148.603 2.79998C148.793 2.78265 149.01 2.77398 149.253 2.77398H149.279C149.417 2.77398 149.487 2.86932 149.487 3.05998C149.504 3.09465 149.513 3.44132 149.513 4.09998C149.53 4.74132 149.539 5.50398 149.539 6.38798C149.539 6.94265 149.521 7.68798 149.487 8.62398L149.435 9.81998L150.553 9.84598Z"/>
<path d="M172.281 20.636C172.333 20.7573 172.359 20.844 172.359 20.896C172.359 20.9653 172.264 21 172.073 21H170.617C170.548 21 170.487 20.9913 170.435 20.974C170.4 20.9393 170.366 20.87 170.331 20.766C170.262 20.5753 170.166 20.2633 170.045 19.83C169.889 19.3967 169.785 19.0067 169.733 18.66C169.681 18.4 169.594 18.088 169.473 17.724C169.369 17.36 169.274 17.0827 169.187 16.892C169.031 16.5627 168.892 16.19 168.771 15.774L168.537 15.02C168.45 14.8293 168.381 14.7167 168.329 14.682C168.294 14.63 168.225 14.604 168.121 14.604C167.757 14.604 167.488 14.6127 167.315 14.63L166.197 14.682C166.058 14.6993 165.417 14.708 164.273 14.708H162.687H162.635C162.531 14.708 162.453 14.8033 162.401 14.994L162.349 15.254L162.245 15.748C162.21 15.8347 162.098 16.3373 161.907 17.256C161.855 17.5507 161.768 17.932 161.647 18.4C161.612 18.7467 161.534 19.0327 161.413 19.258C161.378 19.31 161.335 19.4313 161.283 19.622C161.231 19.8127 161.188 19.9687 161.153 20.09C161.101 20.2287 161.04 20.454 160.971 20.766C160.954 20.7833 160.936 20.8267 160.919 20.896C160.902 20.948 160.876 20.9827 160.841 21C160.806 21 160.754 21 160.685 21H160.165C160.009 21 159.966 20.8873 160.035 20.662C160.035 20.61 160.044 20.5667 160.061 20.532C160.061 20.4973 160.07 20.454 160.087 20.402C160.104 20.35 160.13 20.272 160.165 20.168L160.399 19.206C160.434 19.102 160.494 18.92 160.581 18.66C160.668 18.4 160.728 18.1573 160.763 17.932C160.85 17.516 161.014 16.8833 161.257 16.034L161.465 15.306C161.794 14.2313 162.002 13.4773 162.089 13.044L162.453 11.666C162.626 11.094 162.73 10.73 162.765 10.574C162.886 10.054 163.06 9.40398 163.285 8.62398L163.467 7.89599L163.623 7.34998C163.796 6.76065 163.944 6.33599 164.065 6.07599C164.1 5.97198 164.221 5.61665 164.429 5.00998C164.654 4.38598 164.802 3.89198 164.871 3.52798C164.992 3.11198 165.114 2.79998 165.235 2.59199C165.374 2.38398 165.556 2.27998 165.781 2.27998C165.868 2.27998 165.954 2.35798 166.041 2.51398C166.128 2.66998 166.214 2.86065 166.301 3.08598C166.388 3.31132 166.448 3.47598 166.483 3.57998C166.622 3.90932 166.864 4.73265 167.211 6.04998L167.419 6.77798C167.436 6.91665 167.722 7.76598 168.277 9.32598L168.771 10.756L169.239 11.978C169.724 13.3473 170.036 14.1793 170.175 14.474C170.782 16.3113 171.137 17.4207 171.241 17.802C171.362 18.2527 171.553 18.816 171.813 19.492C172.09 20.168 172.246 20.5493 172.281 20.636ZM167.419 12.914C167.644 12.914 167.757 12.8533 167.757 12.732C167.757 12.6453 167.696 12.4547 167.575 12.16C167.471 11.9 167.315 11.4147 167.107 10.704C166.951 10.132 166.795 9.63799 166.639 9.22199C166.466 8.70199 166.275 8.08665 166.067 7.37598C165.876 6.66532 165.764 6.20598 165.729 5.99798C165.469 5.07932 165.296 4.61998 165.209 4.61998C165.157 4.61998 165.07 4.85398 164.949 5.32198L164.793 5.89398C164.672 6.36198 164.516 6.95132 164.325 7.66198C164.134 8.35532 163.961 8.94465 163.805 9.42998C163.701 9.88065 163.554 10.4527 163.363 11.146C163.19 11.822 163.051 12.29 162.947 12.55C162.912 12.654 162.895 12.7147 162.895 12.732C162.895 12.8533 162.947 12.9313 163.051 12.966C163.172 13.0007 163.285 13.018 163.389 13.018C163.51 13.0007 163.588 12.992 163.623 12.992L165.131 12.94C165.339 12.9053 165.634 12.888 166.015 12.888L167.419 12.914Z"/>
<path d="M178.517 2.17598C178.898 2.17598 179.175 2.21932 179.349 2.30598C179.539 2.37532 179.687 2.50532 179.791 2.69598C179.964 3.05998 180.181 3.52798 180.441 4.09998L181.403 6.17998L182.625 8.85799C182.85 9.34332 183.145 9.98465 183.509 10.782C183.873 11.5793 184.133 12.134 184.289 12.446C184.583 13.0527 184.774 13.4253 184.861 13.564L185.589 14.994L186.395 16.58L186.343 15.072L186.239 12.524V11.744C186.239 10.7907 186.256 9.82865 186.291 8.85799C186.291 8.12999 186.282 7.54065 186.265 7.08998L186.239 5.11399L186.343 2.61798C186.343 2.35798 186.473 2.22798 186.733 2.22798C186.819 2.22798 186.993 2.25398 187.253 2.30598C187.409 2.34065 187.573 2.35799 187.747 2.35799C187.92 2.35799 188.059 2.35799 188.163 2.35799C188.301 2.35799 188.388 2.37532 188.423 2.40998C188.475 2.44465 188.501 2.50532 188.501 2.59199C188.501 2.66132 188.492 2.73932 188.475 2.82598C188.457 2.91265 188.449 3.00799 188.449 3.11198L188.423 5.34798L188.371 10.6L188.345 11.354C188.345 11.9433 188.353 12.4807 188.371 12.966C188.388 13.4513 188.405 13.85 188.423 14.162C188.475 14.9073 188.501 15.5313 188.501 16.034C188.501 15.9647 188.527 16.996 188.579 19.128L188.631 20.584V20.636C188.631 20.9827 188.466 21.1387 188.137 21.104C188.085 21.0867 187.981 21.078 187.825 21.078L187.071 21.104H186.915C186.793 21.104 186.698 21.078 186.629 21.026C186.577 20.974 186.481 20.8267 186.343 20.584C186.291 20.4627 186.221 20.2893 186.135 20.064C186.048 19.8387 185.944 19.5873 185.823 19.31C185.077 17.438 184.54 16.164 184.211 15.488C183.829 14.76 182.867 12.6713 181.325 9.22199C180.978 8.51132 180.588 7.75732 180.155 6.95998L179.401 5.60799L179.479 8.07799L179.505 9.61198C179.539 10.756 179.557 11.51 179.557 11.874C179.557 13.2953 179.583 14.7253 179.635 16.164L179.661 18.192C179.661 18.556 179.678 19.0847 179.713 19.778L179.765 20.688V20.74C179.765 20.9133 179.721 21.026 179.635 21.078C179.548 21.13 179.427 21.156 179.271 21.156L178.699 21.182C178.335 21.234 177.945 21.26 177.529 21.26C177.043 21.26 176.645 21.2687 176.333 21.286L175.007 21.312C174.747 21.312 174.573 21.26 174.487 21.156C174.4 21.0693 174.348 20.9653 174.331 20.844C174.313 20.7227 174.296 20.636 174.279 20.584C174.209 20.272 174.175 19.8907 174.175 19.44C174.175 19.024 174.183 18.6687 174.201 18.374C174.201 17.4727 174.218 16.424 174.253 15.228C174.287 14.0146 174.331 13.148 174.383 12.628L174.513 10.782C174.721 7.90465 174.825 6.28398 174.825 5.91998C174.825 4.55065 174.851 3.52798 174.903 2.85198C174.937 2.38398 175.18 2.14998 175.631 2.14998C175.769 2.14998 175.899 2.15865 176.021 2.17598C176.142 2.19332 176.237 2.20198 176.307 2.20198L178.517 2.17598Z"/>
<path d="M205.031 20.48C205.118 20.6533 205.161 20.766 205.161 20.818C205.161 20.9567 205.005 21.026 204.693 21.026H202.821C202.752 21.026 202.682 20.9653 202.613 20.844C202.544 20.7227 202.483 20.6013 202.431 20.48C202.379 20.3587 202.336 20.2547 202.301 20.168C202.214 19.9947 202.05 19.596 201.807 18.972C201.582 18.348 201.408 17.854 201.287 17.49C201.235 17.3167 201.131 17.0653 200.975 16.736C200.819 16.3893 200.706 16.1467 200.637 16.008C200.568 15.8 200.498 15.6613 200.429 15.592C200.377 15.5227 200.29 15.488 200.169 15.488C200.048 15.488 199.892 15.4967 199.701 15.514C199.528 15.5313 199.337 15.5487 199.129 15.566C198.99 15.6007 198.557 15.618 197.829 15.618C197.326 15.618 196.832 15.6353 196.347 15.67C196.191 15.6873 195.914 15.696 195.515 15.696L194.137 15.67C194.05 15.67 193.981 15.7047 193.929 15.774C193.894 15.8433 193.868 15.93 193.851 16.034C193.834 16.1207 193.816 16.19 193.799 16.242L193.643 16.892C193.591 17.1347 193.522 17.4207 193.435 17.75C193.366 18.062 193.305 18.3567 193.253 18.634L192.967 19.752L192.759 20.506C192.707 20.714 192.655 20.8527 192.603 20.922C192.568 20.974 192.508 21 192.421 21H190.887C190.8 21 190.757 20.9653 190.757 20.896C190.757 20.8613 190.792 20.74 190.861 20.532C191 20.2027 191.121 19.8733 191.225 19.544C191.866 17.3947 192.248 15.9907 192.369 15.332C192.525 14.4653 192.846 13.3473 193.331 11.978C193.487 11.3887 193.634 10.8513 193.773 10.366C193.825 10.1233 193.903 9.82865 194.007 9.48198C194.336 8.26865 194.666 7.13332 194.995 6.07599L195.645 3.99598C195.784 3.45865 195.957 2.90398 196.165 2.33198C196.269 2.07198 196.39 2.01132 196.529 2.14998C196.633 2.21932 196.711 2.34065 196.763 2.51398C196.815 2.68732 196.85 2.80865 196.867 2.87798C196.919 3.08598 197.378 4.12598 198.245 5.99798C198.592 6.70865 198.964 7.63598 199.363 8.77998C199.536 9.28265 200.013 10.366 200.793 12.03C201.192 12.8447 201.452 13.408 201.573 13.72C201.85 14.3267 202.596 15.8 203.809 18.14L204.121 18.79C204.52 19.674 204.823 20.2373 205.031 20.48ZM198.219 11.9C198.34 11.8827 198.444 11.874 198.531 11.874C198.618 11.874 198.687 11.8653 198.739 11.848C198.791 11.8307 198.817 11.8047 198.817 11.77C198.817 11.7353 198.791 11.666 198.739 11.562C198.652 11.406 198.453 10.9727 198.141 10.262C197.829 9.53398 197.612 8.98798 197.491 8.62398C197.318 8.20799 197.179 7.86132 197.075 7.58398C196.988 7.30665 196.919 7.11599 196.867 7.01198C196.832 6.92532 196.789 6.83865 196.737 6.75198C196.702 6.66532 196.668 6.59598 196.633 6.54398C196.598 6.49198 196.564 6.46598 196.529 6.46598C196.477 6.46598 196.416 6.59598 196.347 6.85598C196.295 7.11598 196.252 7.31532 196.217 7.45398C195.905 8.45932 195.68 9.22198 195.541 9.74198C195.472 10.002 195.368 10.3227 195.229 10.704C195.108 11.068 195.021 11.3193 194.969 11.458C194.917 11.6313 194.891 11.77 194.891 11.874C194.891 11.978 194.969 12.03 195.125 12.03C195.489 12.03 196.044 12.0213 196.789 12.004C197.552 11.9693 198.028 11.9347 198.219 11.9Z"/>
</mask>
<path d="M6.876 2.17598C7.25733 2.17598 7.53466 2.21932 7.708 2.30598C7.89866 2.37532 8.046 2.50532 8.15 2.69598C8.32333 3.05998 8.54 3.52798 8.8 4.09998L9.762 6.17998L10.984 8.85799C11.2093 9.34332 11.504 9.98465 11.868 10.782C12.232 11.5793 12.492 12.134 12.648 12.446C12.9427 13.0527 13.1333 13.4253 13.22 13.564L13.948 14.994L14.754 16.58L14.702 15.072L14.598 12.524V11.744C14.598 10.7907 14.6153 9.82865 14.65 8.85799C14.65 8.12999 14.6413 7.54065 14.624 7.08998L14.598 5.11399L14.702 2.61798C14.702 2.35798 14.832 2.22798 15.092 2.22798C15.1787 2.22798 15.352 2.25398 15.612 2.30598C15.768 2.34065 15.9327 2.35799 16.106 2.35799C16.2793 2.35799 16.418 2.35799 16.522 2.35799C16.6607 2.35799 16.7473 2.37532 16.782 2.40998C16.834 2.44465 16.86 2.50532 16.86 2.59199C16.86 2.66132 16.8513 2.73932 16.834 2.82598C16.8167 2.91265 16.808 3.00799 16.808 3.11198L16.782 5.34798L16.73 10.6L16.704 11.354C16.704 11.9433 16.7127 12.4807 16.73 12.966C16.7473 13.4513 16.7647 13.85 16.782 14.162C16.834 14.9073 16.86 15.5313 16.86 16.034C16.86 15.9647 16.886 16.996 16.938 19.128L16.99 20.584V20.636C16.99 20.9827 16.8253 21.1387 16.496 21.104C16.444 21.0867 16.34 21.078 16.184 21.078L15.43 21.104H15.274C15.1527 21.104 15.0573 21.078 14.988 21.026C14.936 20.974 14.8407 20.8267 14.702 20.584C14.65 20.4627 14.5807 20.2893 14.494 20.064C14.4073 19.8387 14.3033 19.5873 14.182 19.31C13.4367 17.438 12.8993 16.164 12.57 15.488C12.1887 14.76 11.2267 12.6713 9.684 9.22199C9.33733 8.51132 8.94733 7.75732 8.514 6.95998L7.76 5.60799L7.838 8.07799L7.864 9.61198C7.89866 10.756 7.916 11.51 7.916 11.874C7.916 13.2953 7.942 14.7253 7.994 16.164L8.02 18.192C8.02 18.556 8.03733 19.0847 8.072 19.778L8.124 20.688V20.74C8.124 20.9133 8.08066 21.026 7.994 21.078C7.90733 21.13 7.786 21.156 7.63 21.156L7.058 21.182C6.694 21.234 6.304 21.26 5.888 21.26C5.40266 21.26 5.004 21.2687 4.692 21.286L3.366 21.312C3.106 21.312 2.93266 21.26 2.846 21.156C2.75933 21.0693 2.70733 20.9653 2.69 20.844C2.67266 20.7227 2.65533 20.636 2.638 20.584C2.56866 20.272 2.534 19.8907 2.534 19.44C2.534 19.024 2.54266 18.6687 2.56 18.374C2.56 17.4727 2.57733 16.424 2.612 15.228C2.64666 14.0146 2.69 13.148 2.742 12.628L2.872 10.782C3.08 7.90465 3.184 6.28398 3.184 5.91998C3.184 4.55065 3.21 3.52798 3.262 2.85198C3.29666 2.38398 3.53933 2.14998 3.99 2.14998C4.12866 2.14998 4.25866 2.15865 4.38 2.17598C4.50133 2.19332 4.59666 2.20198 4.666 2.20198L6.876 2.17598Z" stroke="#EAEAEA" stroke-width="4" mask="url(#path-1-outside-1_2_11)"/>
<path d="M31.3883 20.636C31.4403 20.7573 31.4663 20.844 31.4663 20.896C31.4663 20.9653 31.371 21 31.1803 21H29.7243C29.655 21 29.5943 20.9913 29.5423 20.974C29.5076 20.9393 29.473 20.87 29.4383 20.766C29.369 20.5753 29.2736 20.2633 29.1523 19.83C28.9963 19.3967 28.8923 19.0067 28.8403 18.66C28.7883 18.4 28.7016 18.088 28.5803 17.724C28.4763 17.36 28.381 17.0827 28.2943 16.892C28.1383 16.5627 27.9996 16.19 27.8783 15.774L27.6443 15.02C27.5576 14.8293 27.4883 14.7167 27.4363 14.682C27.4016 14.63 27.3323 14.604 27.2283 14.604C26.8643 14.604 26.5956 14.6127 26.4223 14.63L25.3043 14.682C25.1656 14.6993 24.5243 14.708 23.3803 14.708H21.7943H21.7423C21.6383 14.708 21.5603 14.8033 21.5083 14.994L21.4563 15.254L21.3523 15.748C21.3176 15.8347 21.205 16.3373 21.0143 17.256C20.9623 17.5507 20.8756 17.932 20.7543 18.4C20.7196 18.7467 20.6416 19.0327 20.5203 19.258C20.4856 19.31 20.4423 19.4313 20.3903 19.622C20.3383 19.8127 20.295 19.9687 20.2603 20.09C20.2083 20.2287 20.1476 20.454 20.0783 20.766C20.061 20.7833 20.0436 20.8267 20.0263 20.896C20.009 20.948 19.983 20.9827 19.9483 21C19.9136 21 19.8616 21 19.7923 21H19.2723C19.1163 21 19.073 20.8873 19.1423 20.662C19.1423 20.61 19.151 20.5667 19.1683 20.532C19.1683 20.4973 19.177 20.454 19.1943 20.402C19.2116 20.35 19.2376 20.272 19.2723 20.168L19.5063 19.206C19.541 19.102 19.6016 18.92 19.6883 18.66C19.775 18.4 19.8356 18.1573 19.8703 17.932C19.957 17.516 20.1216 16.8833 20.3643 16.034L20.5723 15.306C20.9016 14.2313 21.1096 13.4773 21.1963 13.044L21.5603 11.666C21.7336 11.094 21.8376 10.73 21.8723 10.574C21.9936 10.054 22.167 9.40398 22.3923 8.62398L22.5743 7.89599L22.7303 7.34998C22.9036 6.76065 23.051 6.33599 23.1723 6.07599C23.207 5.97198 23.3283 5.61665 23.5363 5.00998C23.7616 4.38598 23.909 3.89198 23.9783 3.52798C24.0996 3.11198 24.221 2.79998 24.3423 2.59199C24.481 2.38398 24.663 2.27998 24.8883 2.27998C24.975 2.27998 25.0616 2.35798 25.1483 2.51398C25.235 2.66998 25.3216 2.86065 25.4083 3.08598C25.495 3.31132 25.5556 3.47598 25.5903 3.57998C25.729 3.90932 25.9716 4.73265 26.3183 6.04998L26.5263 6.77798C26.5436 6.91665 26.8296 7.76598 27.3843 9.32598L27.8783 10.756L28.3463 11.978C28.8316 13.3473 29.1436 14.1793 29.2823 14.474C29.889 16.3113 30.2443 17.4207 30.3483 17.802C30.4696 18.2527 30.6603 18.816 30.9203 19.492C31.1976 20.168 31.3536 20.5493 31.3883 20.636ZM26.5263 12.914C26.7516 12.914 26.8643 12.8533 26.8643 12.732C26.8643 12.6453 26.8036 12.4547 26.6823 12.16C26.5783 11.9 26.4223 11.4147 26.2143 10.704C26.0583 10.132 25.9023 9.63799 25.7463 9.22199C25.573 8.70199 25.3823 8.08665 25.1743 7.37598C24.9836 6.66532 24.871 6.20598 24.8363 5.99798C24.5763 5.07932 24.403 4.61998 24.3163 4.61998C24.2643 4.61998 24.1776 4.85398 24.0563 5.32198L23.9003 5.89398C23.779 6.36198 23.623 6.95132 23.4323 7.66198C23.2416 8.35532 23.0683 8.94465 22.9123 9.42998C22.8083 9.88065 22.661 10.4527 22.4703 11.146C22.297 11.822 22.1583 12.29 22.0543 12.55C22.0196 12.654 22.0023 12.7147 22.0023 12.732C22.0023 12.8533 22.0543 12.9313 22.1583 12.966C22.2796 13.0007 22.3923 13.018 22.4963 13.018C22.6176 13.0007 22.6956 12.992 22.7303 12.992L24.2383 12.94C24.4463 12.9053 24.741 12.888 25.1223 12.888L26.5263 12.914Z" stroke="#EAEAEA" stroke-width="4" mask="url(#path-1-outside-1_2_11)"/>
<path d="M38.898 2.66998C40.406 2.66998 41.524 2.96465 42.252 3.55399C42.98 4.14332 43.3614 4.45532 43.396 4.48998C43.5694 4.61132 43.656 4.73265 43.656 4.85398C43.656 4.92332 43.6214 4.99265 43.552 5.06198C43.5 5.13132 43.396 5.27865 43.24 5.50398C43.084 5.72932 42.9627 5.84199 42.876 5.84199C42.7894 5.84199 42.6767 5.79865 42.538 5.71199L42.356 5.55598C41.0387 4.60265 39.912 4.12598 38.976 4.12598C37.78 4.12598 36.87 4.40332 36.246 4.95798C35.6394 5.49532 35.336 6.17998 35.336 7.01198C35.336 7.72265 35.5874 8.32932 36.09 8.83198C36.61 9.33465 37.286 9.81132 38.118 10.262C38.3607 10.366 38.612 10.4613 38.872 10.548C39.7387 10.8773 40.4927 11.2327 41.134 11.614C41.7927 11.978 42.382 12.5413 42.902 13.304C43.422 14.0493 43.682 14.994 43.682 16.138C43.682 18.0967 43.0147 19.44 41.68 20.168C40.3454 20.8787 38.8547 21.234 37.208 21.234C36.2547 21.234 35.388 21.0173 34.608 20.584C33.8454 20.1507 33.2994 19.7693 32.97 19.44C32.7967 19.284 32.7534 19.128 32.84 18.972C32.8574 18.9373 32.9267 18.7987 33.048 18.556C33.1867 18.3133 33.308 18.192 33.412 18.192H33.464C33.516 18.192 33.5594 18.2093 33.594 18.244C33.646 18.2613 33.698 18.3047 33.75 18.374C33.8194 18.4433 33.8974 18.5213 33.984 18.608C34.2094 18.8333 34.6514 19.0933 35.31 19.388C35.9687 19.6653 36.5147 19.804 36.948 19.804C37.8667 19.804 38.742 19.6133 39.574 19.232C40.406 18.8333 40.822 18.0013 40.822 16.736C40.822 16.1987 40.5794 15.7307 40.094 15.332C39.626 14.9333 38.8894 14.4653 37.884 13.928L36.766 13.304C35.5527 12.6107 34.5994 11.8653 33.906 11.068C33.23 10.2707 32.892 9.22198 32.892 7.92198C32.892 6.84732 33.1954 5.91132 33.802 5.11399C34.426 4.31665 35.1974 3.70998 36.116 3.29398C37.052 2.87798 37.9794 2.66998 38.898 2.66998Z" stroke="#EAEAEA" stroke-width="4" mask="url(#path-1-outside-1_2_11)"/>
<path d="M57.3562 3.99598C57.3562 4.39465 57.3215 4.59398 57.2522 4.59398C57.1482 4.59398 57.0269 4.58532 56.8882 4.56798C56.7669 4.53332 56.6109 4.51599 56.4202 4.51599H52.2602L49.0362 4.48998C48.9322 4.48998 48.5422 4.51598 47.8662 4.56798L47.2682 4.61998L47.2162 5.32198C47.1989 5.58198 47.1902 5.98932 47.1902 6.54398C47.1902 6.82132 47.2075 7.18532 47.2422 7.63598C47.2769 8.05198 47.2942 8.35532 47.2942 8.54598V9.58598C47.2942 9.86332 47.3029 10.08 47.3202 10.236C47.4762 10.2533 47.7102 10.262 48.0222 10.262H49.0622C49.1662 10.262 49.3742 10.2447 49.6862 10.21C50.1369 10.1753 50.5269 10.158 50.8562 10.158C50.9949 10.158 51.4802 10.184 52.3122 10.236L52.8842 10.262C53.0229 10.262 53.2222 10.2533 53.4822 10.236C53.7422 10.2013 53.9935 10.184 54.2362 10.184L55.0942 10.21C55.5449 10.2447 55.8569 10.262 56.0302 10.262C56.2209 10.262 56.3509 10.2533 56.4202 10.236L56.5762 10.21C56.6975 10.21 56.7842 10.2533 56.8362 10.34C56.8882 10.4093 56.9055 10.4787 56.8882 10.548C56.8709 10.6693 56.8622 10.8253 56.8622 11.016C56.8622 11.1893 56.8535 11.3453 56.8362 11.484C56.8189 11.6227 56.7929 11.7093 56.7582 11.744C56.7236 11.7613 56.6195 11.77 56.4462 11.77L55.4062 11.666C54.1062 11.5447 53.2569 11.484 52.8582 11.484C51.3849 11.484 50.3015 11.51 49.6082 11.562C49.3309 11.5967 49.0275 11.614 48.6982 11.614C48.3689 11.614 48.1609 11.614 48.0742 11.614C47.7449 11.614 47.5022 11.6053 47.3462 11.588L47.2682 12.004C47.2335 12.316 47.2162 12.5933 47.2162 12.836C47.2162 13.044 47.2335 13.2867 47.2682 13.564C47.3029 13.8413 47.3202 14.084 47.3202 14.292L47.3462 17.386L47.3202 18.686C47.3029 18.842 47.2942 19.0587 47.2942 19.336C47.5195 19.3533 47.8489 19.362 48.2822 19.362C48.6462 19.3793 49.2095 19.388 49.9722 19.388L51.3762 19.414C51.6709 19.4313 52.1215 19.44 52.7282 19.44C53.0922 19.44 53.5689 19.4227 54.1582 19.388L55.2502 19.362C55.6662 19.362 56.0129 19.3707 56.2902 19.388C56.5675 19.4053 56.7755 19.414 56.9142 19.414C57.0529 19.414 57.1309 19.44 57.1482 19.492C57.1829 19.544 57.2002 19.6567 57.2002 19.83C57.2002 19.9513 57.1916 20.0813 57.1742 20.22C57.1569 20.3413 57.1482 20.48 57.1482 20.636C57.1482 20.7573 57.1049 20.844 57.0182 20.896C56.9315 20.9307 56.7929 20.948 56.6022 20.948C56.4115 20.948 56.2555 20.9393 56.1342 20.922C55.6662 20.87 54.7216 20.844 53.3002 20.844C52.4336 20.844 51.8095 20.8527 51.4282 20.87C51.1335 20.8873 50.6482 20.896 49.9722 20.896L47.5542 20.87C47.2769 20.8527 46.9475 20.844 46.5662 20.844C46.3235 20.844 46.1589 20.818 46.0722 20.766C46.0029 20.6967 45.9682 20.5927 45.9682 20.454L45.9942 20.038C46.0115 19.9687 46.0202 19.8907 46.0202 19.804C46.0202 19.752 46.0115 19.6307 45.9942 19.44C45.9769 19.232 45.9682 18.8593 45.9682 18.322C45.9682 17.802 45.9509 16.9527 45.9162 15.774C45.8642 14.8033 45.8382 13.8673 45.8382 12.966C45.8382 12.5847 45.8815 11.484 45.9682 9.66398C45.9855 9.29998 46.0029 8.93598 46.0202 8.57198C46.0375 8.20798 46.0462 7.87865 46.0462 7.58398C46.0462 5.57332 46.0202 4.24732 45.9682 3.60598C45.9162 3.18998 46.1675 2.98198 46.7222 2.98198C46.8609 2.98198 47.0862 2.99932 47.3982 3.03398C47.6755 3.06865 47.8836 3.08598 48.0222 3.08598L49.6602 3.03398C50.8389 2.96465 51.7489 2.92998 52.3902 2.92998C53.1356 2.92998 54.1842 2.94732 55.5362 2.98198C55.9695 2.99932 56.4289 3.00798 56.9142 3.00798C57.1222 3.00798 57.2522 3.05998 57.3042 3.16398C57.3562 3.26798 57.3735 3.38065 57.3562 3.50198C57.3562 3.60598 57.3562 3.67532 57.3562 3.70998V3.99598Z" stroke="#EAEAEA" stroke-width="4" mask="url(#path-1-outside-1_2_11)"/>
<path d="M71.3635 20.272C71.6062 20.6533 71.7275 20.9047 71.7275 21.026C71.7275 21.0953 71.6842 21.1387 71.5975 21.156C71.5109 21.1733 71.4329 21.182 71.3635 21.182C71.3115 21.182 71.2682 21.182 71.2335 21.182L68.2955 21.26C68.1569 21.26 68.0442 21.1993 67.9575 21.078C67.8882 20.9567 67.7842 20.74 67.6455 20.428C67.5588 20.168 67.4028 19.8213 67.1775 19.388C66.8308 18.764 66.2328 17.594 65.3835 15.878L64.0575 13.304L64.1355 14.682L64.2655 16.658C64.3695 18.9807 64.4562 20.2633 64.5255 20.506C64.5428 20.5753 64.5515 20.662 64.5515 20.766C64.5515 21.078 64.3868 21.234 64.0575 21.234C63.9535 21.234 63.8668 21.2253 63.7975 21.208C63.5202 21.1733 62.8442 21.208 61.7695 21.312C61.0415 21.3813 60.5995 21.416 60.4435 21.416C60.2182 21.416 60.0622 21.3727 59.9755 21.286C59.9062 21.1993 59.8715 21.052 59.8715 20.844L59.8975 20.246L59.8455 18.738C59.7415 16.9353 59.6895 15.3667 59.6895 14.032C59.6895 13.3387 59.7155 12.862 59.7675 12.602C59.8542 12.1687 59.8975 10.9467 59.8975 8.93599C59.8975 6.83865 59.8628 5.25265 59.7935 4.17798C59.7762 4.03932 59.7675 3.84865 59.7675 3.60598C59.7675 3.32865 59.7935 3.12932 59.8455 3.00798C59.8975 2.88665 59.9495 2.82598 60.0015 2.82598C60.0708 2.80865 60.1835 2.79998 60.3395 2.79998L60.9115 2.74798C62.1075 2.60932 63.0608 2.53998 63.7715 2.53998C65.7128 2.53998 67.1689 3.04265 68.1395 4.04799C69.1275 5.03598 69.6215 6.32732 69.6215 7.92198C69.6215 9.18732 69.2142 10.4007 68.3995 11.562C68.0528 12.0647 67.6542 12.5153 67.2035 12.914L69.0235 16.216C70.3582 18.608 71.1382 19.96 71.3635 20.272ZM63.9015 9.84598C64.1615 9.84598 64.3955 9.79399 64.6035 9.68998C65.0888 9.46465 65.3315 9.00532 65.3315 8.31198C65.3315 7.80932 65.2535 7.43665 65.0975 7.19398C64.9415 6.95132 64.7422 6.82999 64.4995 6.82999C64.3088 6.82999 64.1442 6.89932 64.0055 7.03799C63.9882 7.05532 63.9882 7.17665 64.0055 7.40199C64.0228 7.62732 64.0315 7.85265 64.0315 8.07799C64.0315 8.26865 64.0228 8.40732 64.0055 8.49398C63.9362 8.78865 63.9015 9.09198 63.9015 9.40398L63.8755 9.63798L63.9015 9.84598Z" stroke="#EAEAEA" stroke-width="4" mask="url(#path-1-outside-1_2_11)"/>
<path d="M92.9352 20.636C92.9872 20.7573 93.0132 20.844 93.0132 20.896C93.0132 20.9653 92.9179 21 92.7272 21H91.2712C91.2019 21 91.1412 20.9913 91.0892 20.974C91.0545 20.9393 91.0199 20.87 90.9852 20.766C90.9159 20.5753 90.8205 20.2633 90.6992 19.83C90.5432 19.3967 90.4392 19.0067 90.3872 18.66C90.3352 18.4 90.2485 18.088 90.1272 17.724C90.0232 17.36 89.9279 17.0827 89.8412 16.892C89.6852 16.5627 89.5465 16.19 89.4252 15.774L89.1912 15.02C89.1045 14.8293 89.0352 14.7167 88.9832 14.682C88.9485 14.63 88.8792 14.604 88.7752 14.604C88.4112 14.604 88.1425 14.6127 87.9692 14.63L86.8512 14.682C86.7125 14.6993 86.0712 14.708 84.9272 14.708H83.3412H83.2892C83.1852 14.708 83.1072 14.8033 83.0552 14.994L83.0032 15.254L82.8992 15.748C82.8645 15.8347 82.7519 16.3373 82.5612 17.256C82.5092 17.5507 82.4225 17.932 82.3012 18.4C82.2665 18.7467 82.1885 19.0327 82.0672 19.258C82.0325 19.31 81.9892 19.4313 81.9372 19.622C81.8852 19.8127 81.8419 19.9687 81.8072 20.09C81.7552 20.2287 81.6945 20.454 81.6252 20.766C81.6079 20.7833 81.5905 20.8267 81.5732 20.896C81.5559 20.948 81.5299 20.9827 81.4952 21C81.4605 21 81.4085 21 81.3392 21H80.8192C80.6632 21 80.6199 20.8873 80.6892 20.662C80.6892 20.61 80.6979 20.5667 80.7152 20.532C80.7152 20.4973 80.7239 20.454 80.7412 20.402C80.7585 20.35 80.7845 20.272 80.8192 20.168L81.0532 19.206C81.0879 19.102 81.1485 18.92 81.2352 18.66C81.3219 18.4 81.3825 18.1573 81.4172 17.932C81.5039 17.516 81.6685 16.8833 81.9112 16.034L82.1192 15.306C82.4485 14.2313 82.6565 13.4773 82.7432 13.044L83.1072 11.666C83.2805 11.094 83.3845 10.73 83.4192 10.574C83.5405 10.054 83.7139 9.40398 83.9392 8.62398L84.1212 7.89599L84.2772 7.34998C84.4505 6.76065 84.5979 6.33599 84.7192 6.07599C84.7539 5.97198 84.8752 5.61665 85.0832 5.00998C85.3085 4.38598 85.4559 3.89198 85.5252 3.52798C85.6465 3.11198 85.7679 2.79998 85.8892 2.59199C86.0279 2.38398 86.2099 2.27998 86.4352 2.27998C86.5219 2.27998 86.6085 2.35798 86.6952 2.51398C86.7819 2.66998 86.8685 2.86065 86.9552 3.08598C87.0419 3.31132 87.1025 3.47598 87.1372 3.57998C87.2759 3.90932 87.5185 4.73265 87.8652 6.04998L88.0732 6.77798C88.0905 6.91665 88.3765 7.76598 88.9312 9.32598L89.4252 10.756L89.8932 11.978C90.3785 13.3473 90.6905 14.1793 90.8292 14.474C91.4359 16.3113 91.7912 17.4207 91.8952 17.802C92.0165 18.2527 92.2072 18.816 92.4672 19.492C92.7445 20.168 92.9005 20.5493 92.9352 20.636ZM88.0732 12.914C88.2985 12.914 88.4112 12.8533 88.4112 12.732C88.4112 12.6453 88.3505 12.4547 88.2292 12.16C88.1252 11.9 87.9692 11.4147 87.7612 10.704C87.6052 10.132 87.4492 9.63799 87.2932 9.22199C87.1199 8.70199 86.9292 8.08665 86.7212 7.37598C86.5305 6.66532 86.4179 6.20598 86.3832 5.99798C86.1232 5.07932 85.9499 4.61998 85.8632 4.61998C85.8112 4.61998 85.7245 4.85398 85.6032 5.32198L85.4472 5.89398C85.3259 6.36198 85.1699 6.95132 84.9792 7.66198C84.7885 8.35532 84.6152 8.94465 84.4592 9.42998C84.3552 9.88065 84.2079 10.4527 84.0172 11.146C83.8439 11.822 83.7052 12.29 83.6012 12.55C83.5665 12.654 83.5492 12.7147 83.5492 12.732C83.5492 12.8533 83.6012 12.9313 83.7052 12.966C83.8265 13.0007 83.9392 13.018 84.0432 13.018C84.1645 13.0007 84.2425 12.992 84.2772 12.992L85.7852 12.94C85.9932 12.9053 86.2879 12.888 86.6692 12.888L88.0732 12.914Z" stroke="#EAEAEA" stroke-width="4" mask="url(#path-1-outside-1_2_11)"/>
<path d="M97.1429 4.51599C97.0563 6.94265 97.0129 8.25998 97.0129 8.46798L96.9869 12.186C96.9869 12.5153 96.9956 12.8013 97.0129 13.044L97.0389 14.604C97.0389 14.968 97.0303 15.1933 97.0129 15.28C96.9956 15.384 96.9869 15.4793 96.9869 15.566C97.0043 15.6527 97.0129 15.7133 97.0129 15.748C97.0129 15.8173 97.0216 15.8607 97.0389 15.878L97.6629 15.93C98.2176 15.9647 98.6769 15.9733 99.0409 15.956L103.851 15.904C103.851 15.904 104.761 15.93 106.581 15.982L107.803 16.008C107.994 16.0253 108.089 16.0773 108.089 16.164C108.089 16.1987 108.08 16.242 108.063 16.294C108.046 16.346 108.037 16.398 108.037 16.45V17.646C108.037 17.958 108.089 18.6167 108.193 19.622L108.297 20.714L108.323 20.844C108.323 20.9307 108.28 20.9827 108.193 21C108.106 21.0347 107.95 21.052 107.725 21.052L105.827 21.026L102.603 20.974C102.17 20.974 101.563 21 100.783 21.052C100.436 21.0693 100.046 21.0867 99.6129 21.104C99.1969 21.1213 98.7809 21.13 98.3649 21.13L97.9229 21.104C97.8189 21.0867 97.6196 21.078 97.3249 21.078L96.1549 21.104C95.9469 21.1213 95.6783 21.13 95.3489 21.13C95.1236 21.13 94.9849 21.0953 94.9329 21.026C94.8983 20.974 94.8809 20.8873 94.8809 20.766C94.8983 20.6447 94.9069 20.5407 94.9069 20.454C94.9069 20.0727 94.9329 19.414 94.9849 18.478L95.0629 15.8L95.0109 14.578C94.9936 14.3353 94.9763 14.0493 94.9589 13.72C94.9416 13.3733 94.9329 13.018 94.9329 12.654C94.9329 13.2433 94.9849 12.654 95.0889 10.886C95.1929 9.10065 95.2449 7.99999 95.2449 7.58398L95.2189 4.64599L95.1669 2.98198V2.95599C95.1669 2.81732 95.2623 2.74798 95.4529 2.74798L95.8169 2.77398C95.9036 2.77398 96.0163 2.78265 96.1549 2.79998C96.2936 2.79998 96.5103 2.79998 96.8049 2.79998H97.0389C97.1429 2.79998 97.1949 2.86932 97.1949 3.00798L97.1429 4.51599Z" stroke="#EAEAEA" stroke-width="4" mask="url(#path-1-outside-1_2_11)"/>
<path d="M113.214 4.04799C113.3 4.51599 113.5 5.16598 113.812 5.99798C114.141 6.82998 114.453 7.55798 114.748 8.18198C114.99 8.59798 115.311 9.27398 115.71 10.21C116.126 11.1287 116.42 11.8567 116.594 12.394C116.698 12.6713 116.845 13.018 117.036 13.434L117.426 14.37L117.972 15.592C118.474 14.604 118.838 13.8847 119.064 13.434L120.754 10.054L121.924 7.71398C122.53 6.46598 122.938 5.65998 123.146 5.29598C123.475 4.61998 123.822 3.99598 124.186 3.42398C124.55 2.83465 124.81 2.53998 124.966 2.53998C125.104 2.53998 125.174 2.65265 125.174 2.87798C125.174 3.08598 125.13 3.36332 125.044 3.70998L124.94 4.35998C124.87 4.82798 124.836 6.90798 124.836 10.6C124.836 11.4147 124.81 12.4027 124.758 13.564C124.723 14.7253 124.688 15.4967 124.654 15.878C124.619 16.3287 124.602 16.996 124.602 17.88L124.628 20.402V20.532C124.628 20.74 124.576 20.8267 124.472 20.792H124.42C124.333 20.792 124.229 20.8007 124.108 20.818C124.004 20.8353 123.891 20.844 123.77 20.844C123.7 20.8267 123.648 20.7833 123.614 20.714C123.596 20.6447 123.588 20.5233 123.588 20.35V18.816C123.588 17.048 123.605 16.008 123.64 15.696C123.674 15.332 123.709 14.656 123.744 13.668C123.796 12.68 123.822 11.8827 123.822 11.276C123.804 11.12 123.813 10.6347 123.848 9.81998L123.874 8.88399L123.926 7.01198C123.804 7.18532 123.7 7.36732 123.614 7.55798C123.44 7.85265 123.276 8.17332 123.12 8.51998L122.86 9.03999C122.565 9.61199 122.227 10.288 121.846 11.068C121.464 11.8307 121.135 12.4807 120.858 13.018C120.546 13.642 120.147 14.448 119.662 15.436C119.194 16.4067 118.83 17.178 118.57 17.75C118.119 18.8073 117.859 19.336 117.79 19.336C117.738 19.336 117.66 19.2493 117.556 19.076C117.452 18.9027 117.382 18.79 117.348 18.738C117.226 18.5473 117.036 18.1487 116.776 17.542C116.516 16.918 116.308 16.372 116.152 15.904C116.048 15.592 115.597 14.7167 114.8 13.278C114.176 12.082 113.855 11.458 113.838 11.406C113.664 11.0593 113.43 10.4787 113.136 9.66398C112.945 9.23065 112.798 8.84932 112.694 8.51998L112.642 9.66398L112.59 11.432L112.538 16.554L112.512 20.61C112.512 20.766 112.468 20.8613 112.382 20.896C112.295 20.9307 112.191 20.948 112.07 20.948C111.948 20.9307 111.853 20.922 111.784 20.922L111.212 20.948C110.9 20.9827 110.674 21 110.536 21C110.276 21 110.12 20.948 110.068 20.844C110.033 20.7227 110.024 20.48 110.042 20.116C110.042 19.544 110.033 18.998 110.016 18.478L109.964 15.28C109.964 14.7947 109.981 14.292 110.016 13.772C110.05 13.2347 110.076 12.758 110.094 12.342C110.18 11.094 110.224 10.2187 110.224 9.71598L110.276 4.82798L110.25 3.42398C110.25 2.81732 110.293 2.47065 110.38 2.38398C110.432 2.33198 110.492 2.30598 110.562 2.30598C110.614 2.30598 110.692 2.32332 110.796 2.35799C110.9 2.39265 111.03 2.40132 111.186 2.38398C111.342 2.36665 111.558 2.35799 111.836 2.35799C112.165 2.35799 112.408 2.37532 112.564 2.40998C112.72 2.46198 112.832 2.59198 112.902 2.79998C112.971 2.99065 113.032 3.21598 113.084 3.47598C113.136 3.71865 113.179 3.90932 113.214 4.04799Z" stroke="#EAEAEA" stroke-width="4" mask="url(#path-1-outside-1_2_11)"/>
<path d="M133.34 13.252C133.34 13.6333 133.358 13.9627 133.392 14.24C133.444 14.5173 133.574 14.786 133.782 15.046C134.008 15.2887 134.363 15.41 134.848 15.41C135.524 15.41 135.984 15.1587 136.226 14.656C136.469 14.136 136.59 13.5727 136.59 12.966L136.616 11.666C136.668 9.74198 136.694 8.66732 136.694 8.44198C136.694 7.95665 136.686 7.62732 136.668 7.45398C136.668 6.84732 136.634 5.91998 136.564 4.67198L136.512 3.24198C136.512 2.92998 136.556 2.71332 136.642 2.59199C136.729 2.47065 136.894 2.40998 137.136 2.40998H140.438L140.828 2.38398C141.002 2.38398 141.14 2.43598 141.244 2.53998C141.366 2.64398 141.444 2.85198 141.478 3.16398C141.513 3.45865 141.53 4.48132 141.53 6.23198L141.504 11.822C141.504 12.7927 141.348 13.9627 141.036 15.332C140.724 16.684 140.074 17.9407 139.086 19.102C138.098 20.2633 136.686 20.844 134.848 20.844C130.723 20.844 128.504 18.868 128.192 14.916C128.175 14.7427 128.166 14.396 128.166 13.876C128.166 13.3387 128.184 12.394 128.218 11.042C128.27 9.48198 128.288 8.32065 128.27 7.55798C128.27 6.51798 128.253 5.42598 128.218 4.28198C128.201 3.95265 128.192 3.61465 128.192 3.26798C128.192 3.19865 128.184 3.06865 128.166 2.87798C128.166 2.68732 128.201 2.54865 128.27 2.46198C128.357 2.37532 128.504 2.33198 128.712 2.33198L130.22 2.35799C130.567 2.35799 130.818 2.34932 130.974 2.33198C131.356 2.29732 131.668 2.27998 131.91 2.27998L132.95 2.30598C133.106 2.30598 133.202 2.34932 133.236 2.43598C133.288 2.50532 133.323 2.64398 133.34 2.85198V13.252Z" stroke="#EAEAEA" stroke-width="4" mask="url(#path-1-outside-1_2_11)"/>
<path d="M150.553 9.84598C150.917 9.84598 151.255 9.82865 151.567 9.79398C151.671 9.77665 151.835 9.76798 152.061 9.76798C152.303 9.76798 152.485 9.77665 152.607 9.79398L153.205 9.84598L153.283 9.06598L153.361 7.81798L153.413 5.26998L153.465 3.26798C153.482 3.00798 153.517 2.83465 153.569 2.74798C153.621 2.66132 153.742 2.60932 153.933 2.59199C154.106 2.59199 154.591 2.53998 155.389 2.43598C155.527 2.41865 155.779 2.40998 156.143 2.40998C156.697 2.40998 157.157 2.43598 157.521 2.48799C157.711 2.52265 157.824 2.56598 157.859 2.61798C157.911 2.65265 157.937 2.72198 157.937 2.82598C157.954 2.92998 157.971 3.02532 157.989 3.11198C157.989 3.38932 157.963 3.85732 157.911 4.51599C157.841 5.72932 157.807 6.56132 157.807 7.01198C157.807 7.23732 157.755 7.95665 157.651 9.16999C157.547 10.4873 157.495 11.3453 157.495 11.744L157.547 16.892C157.547 18.8333 157.581 20.0207 157.651 20.454V20.506C157.651 20.6967 157.616 20.818 157.547 20.87C157.477 20.9047 157.399 20.922 157.313 20.922C157.226 20.9047 157.165 20.896 157.131 20.896C156.992 20.8613 156.819 20.844 156.611 20.844C156.541 20.844 156.316 20.8613 155.935 20.896C155.449 20.948 154.669 20.974 153.595 20.974H153.543C153.3 20.974 153.179 20.896 153.179 20.74C153.179 20.4107 153.17 19.7607 153.153 18.79C153.153 17.8193 153.127 17.1087 153.075 16.658C153.04 15.9993 153.023 15.358 153.023 14.734C153.005 14.474 152.997 14.0753 152.997 13.538H152.243L151.125 13.564L150.657 13.59L150.137 13.564C149.877 13.564 149.669 13.5553 149.513 13.538L149.435 15.176C149.383 15.7827 149.357 16.5713 149.357 17.542V18.868C149.357 19.804 149.374 20.3673 149.409 20.558C149.443 20.766 149.409 20.896 149.305 20.948C149.218 20.9827 149.105 21 148.967 21C148.845 21 148.759 21 148.707 21C148.568 20.9827 148.334 20.9653 148.005 20.948C147.675 20.9133 147.407 20.896 147.199 20.896L146.445 20.948C146.323 20.9653 145.873 21 145.093 21.052C144.694 21.104 144.495 20.8613 144.495 20.324L144.521 19.31L144.573 17.438C144.573 17.0567 144.581 16.7013 144.599 16.372L144.625 13.356C144.625 12.6627 144.616 12.2207 144.599 12.03C144.547 11.6313 144.521 11.1113 144.521 10.47L144.547 8.88399C144.564 8.62398 144.573 8.28598 144.573 7.86999C144.573 7.38465 144.625 6.37932 144.729 4.85398L144.807 3.05998C144.807 2.92132 144.833 2.82598 144.885 2.77398C144.937 2.72198 145.015 2.69598 145.119 2.69598L145.457 2.72198C145.682 2.75665 145.977 2.78265 146.341 2.79998C146.705 2.81732 147.06 2.82598 147.407 2.82598L148.603 2.79998C148.793 2.78265 149.01 2.77398 149.253 2.77398H149.279C149.417 2.77398 149.487 2.86932 149.487 3.05998C149.504 3.09465 149.513 3.44132 149.513 4.09998C149.53 4.74132 149.539 5.50398 149.539 6.38798C149.539 6.94265 149.521 7.68798 149.487 8.62398L149.435 9.81998L150.553 9.84598Z" stroke="#EAEAEA" stroke-width="4" mask="url(#path-1-outside-1_2_11)"/>
<path d="M172.281 20.636C172.333 20.7573 172.359 20.844 172.359 20.896C172.359 20.9653 172.264 21 172.073 21H170.617C170.548 21 170.487 20.9913 170.435 20.974C170.4 20.9393 170.366 20.87 170.331 20.766C170.262 20.5753 170.166 20.2633 170.045 19.83C169.889 19.3967 169.785 19.0067 169.733 18.66C169.681 18.4 169.594 18.088 169.473 17.724C169.369 17.36 169.274 17.0827 169.187 16.892C169.031 16.5627 168.892 16.19 168.771 15.774L168.537 15.02C168.45 14.8293 168.381 14.7167 168.329 14.682C168.294 14.63 168.225 14.604 168.121 14.604C167.757 14.604 167.488 14.6127 167.315 14.63L166.197 14.682C166.058 14.6993 165.417 14.708 164.273 14.708H162.687H162.635C162.531 14.708 162.453 14.8033 162.401 14.994L162.349 15.254L162.245 15.748C162.21 15.8347 162.098 16.3373 161.907 17.256C161.855 17.5507 161.768 17.932 161.647 18.4C161.612 18.7467 161.534 19.0327 161.413 19.258C161.378 19.31 161.335 19.4313 161.283 19.622C161.231 19.8127 161.188 19.9687 161.153 20.09C161.101 20.2287 161.04 20.454 160.971 20.766C160.954 20.7833 160.936 20.8267 160.919 20.896C160.902 20.948 160.876 20.9827 160.841 21C160.806 21 160.754 21 160.685 21H160.165C160.009 21 159.966 20.8873 160.035 20.662C160.035 20.61 160.044 20.5667 160.061 20.532C160.061 20.4973 160.07 20.454 160.087 20.402C160.104 20.35 160.13 20.272 160.165 20.168L160.399 19.206C160.434 19.102 160.494 18.92 160.581 18.66C160.668 18.4 160.728 18.1573 160.763 17.932C160.85 17.516 161.014 16.8833 161.257 16.034L161.465 15.306C161.794 14.2313 162.002 13.4773 162.089 13.044L162.453 11.666C162.626 11.094 162.73 10.73 162.765 10.574C162.886 10.054 163.06 9.40398 163.285 8.62398L163.467 7.89599L163.623 7.34998C163.796 6.76065 163.944 6.33599 164.065 6.07599C164.1 5.97198 164.221 5.61665 164.429 5.00998C164.654 4.38598 164.802 3.89198 164.871 3.52798C164.992 3.11198 165.114 2.79998 165.235 2.59199C165.374 2.38398 165.556 2.27998 165.781 2.27998C165.868 2.27998 165.954 2.35798 166.041 2.51398C166.128 2.66998 166.214 2.86065 166.301 3.08598C166.388 3.31132 166.448 3.47598 166.483 3.57998C166.622 3.90932 166.864 4.73265 167.211 6.04998L167.419 6.77798C167.436 6.91665 167.722 7.76598 168.277 9.32598L168.771 10.756L169.239 11.978C169.724 13.3473 170.036 14.1793 170.175 14.474C170.782 16.3113 171.137 17.4207 171.241 17.802C171.362 18.2527 171.553 18.816 171.813 19.492C172.09 20.168 172.246 20.5493 172.281 20.636ZM167.419 12.914C167.644 12.914 167.757 12.8533 167.757 12.732C167.757 12.6453 167.696 12.4547 167.575 12.16C167.471 11.9 167.315 11.4147 167.107 10.704C166.951 10.132 166.795 9.63799 166.639 9.22199C166.466 8.70199 166.275 8.08665 166.067 7.37598C165.876 6.66532 165.764 6.20598 165.729 5.99798C165.469 5.07932 165.296 4.61998 165.209 4.61998C165.157 4.61998 165.07 4.85398 164.949 5.32198L164.793 5.89398C164.672 6.36198 164.516 6.95132 164.325 7.66198C164.134 8.35532 163.961 8.94465 163.805 9.42998C163.701 9.88065 163.554 10.4527 163.363 11.146C163.19 11.822 163.051 12.29 162.947 12.55C162.912 12.654 162.895 12.7147 162.895 12.732C162.895 12.8533 162.947 12.9313 163.051 12.966C163.172 13.0007 163.285 13.018 163.389 13.018C163.51 13.0007 163.588 12.992 163.623 12.992L165.131 12.94C165.339 12.9053 165.634 12.888 166.015 12.888L167.419 12.914Z" stroke="#EAEAEA" stroke-width="4" mask="url(#path-1-outside-1_2_11)"/>
<path d="M178.517 2.17598C178.898 2.17598 179.175 2.21932 179.349 2.30598C179.539 2.37532 179.687 2.50532 179.791 2.69598C179.964 3.05998 180.181 3.52798 180.441 4.09998L181.403 6.17998L182.625 8.85799C182.85 9.34332 183.145 9.98465 183.509 10.782C183.873 11.5793 184.133 12.134 184.289 12.446C184.583 13.0527 184.774 13.4253 184.861 13.564L185.589 14.994L186.395 16.58L186.343 15.072L186.239 12.524V11.744C186.239 10.7907 186.256 9.82865 186.291 8.85799C186.291 8.12999 186.282 7.54065 186.265 7.08998L186.239 5.11399L186.343 2.61798C186.343 2.35798 186.473 2.22798 186.733 2.22798C186.819 2.22798 186.993 2.25398 187.253 2.30598C187.409 2.34065 187.573 2.35799 187.747 2.35799C187.92 2.35799 188.059 2.35799 188.163 2.35799C188.301 2.35799 188.388 2.37532 188.423 2.40998C188.475 2.44465 188.501 2.50532 188.501 2.59199C188.501 2.66132 188.492 2.73932 188.475 2.82598C188.457 2.91265 188.449 3.00799 188.449 3.11198L188.423 5.34798L188.371 10.6L188.345 11.354C188.345 11.9433 188.353 12.4807 188.371 12.966C188.388 13.4513 188.405 13.85 188.423 14.162C188.475 14.9073 188.501 15.5313 188.501 16.034C188.501 15.9647 188.527 16.996 188.579 19.128L188.631 20.584V20.636C188.631 20.9827 188.466 21.1387 188.137 21.104C188.085 21.0867 187.981 21.078 187.825 21.078L187.071 21.104H186.915C186.793 21.104 186.698 21.078 186.629 21.026C186.577 20.974 186.481 20.8267 186.343 20.584C186.291 20.4627 186.221 20.2893 186.135 20.064C186.048 19.8387 185.944 19.5873 185.823 19.31C185.077 17.438 184.54 16.164 184.211 15.488C183.829 14.76 182.867 12.6713 181.325 9.22199C180.978 8.51132 180.588 7.75732 180.155 6.95998L179.401 5.60799L179.479 8.07799L179.505 9.61198C179.539 10.756 179.557 11.51 179.557 11.874C179.557 13.2953 179.583 14.7253 179.635 16.164L179.661 18.192C179.661 18.556 179.678 19.0847 179.713 19.778L179.765 20.688V20.74C179.765 20.9133 179.721 21.026 179.635 21.078C179.548 21.13 179.427 21.156 179.271 21.156L178.699 21.182C178.335 21.234 177.945 21.26 177.529 21.26C177.043 21.26 176.645 21.2687 176.333 21.286L175.007 21.312C174.747 21.312 174.573 21.26 174.487 21.156C174.4 21.0693 174.348 20.9653 174.331 20.844C174.313 20.7227 174.296 20.636 174.279 20.584C174.209 20.272 174.175 19.8907 174.175 19.44C174.175 19.024 174.183 18.6687 174.201 18.374C174.201 17.4727 174.218 16.424 174.253 15.228C174.287 14.0146 174.331 13.148 174.383 12.628L174.513 10.782C174.721 7.90465 174.825 6.28398 174.825 5.91998C174.825 4.55065 174.851 3.52798 174.903 2.85198C174.937 2.38398 175.18 2.14998 175.631 2.14998C175.769 2.14998 175.899 2.15865 176.021 2.17598C176.142 2.19332 176.237 2.20198 176.307 2.20198L178.517 2.17598Z" stroke="#EAEAEA" stroke-width="4" mask="url(#path-1-outside-1_2_11)"/>
<path d="M205.031 20.48C205.118 20.6533 205.161 20.766 205.161 20.818C205.161 20.9567 205.005 21.026 204.693 21.026H202.821C202.752 21.026 202.682 20.9653 202.613 20.844C202.544 20.7227 202.483 20.6013 202.431 20.48C202.379 20.3587 202.336 20.2547 202.301 20.168C202.214 19.9947 202.05 19.596 201.807 18.972C201.582 18.348 201.408 17.854 201.287 17.49C201.235 17.3167 201.131 17.0653 200.975 16.736C200.819 16.3893 200.706 16.1467 200.637 16.008C200.568 15.8 200.498 15.6613 200.429 15.592C200.377 15.5227 200.29 15.488 200.169 15.488C200.048 15.488 199.892 15.4967 199.701 15.514C199.528 15.5313 199.337 15.5487 199.129 15.566C198.99 15.6007 198.557 15.618 197.829 15.618C197.326 15.618 196.832 15.6353 196.347 15.67C196.191 15.6873 195.914 15.696 195.515 15.696L194.137 15.67C194.05 15.67 193.981 15.7047 193.929 15.774C193.894 15.8433 193.868 15.93 193.851 16.034C193.834 16.1207 193.816 16.19 193.799 16.242L193.643 16.892C193.591 17.1347 193.522 17.4207 193.435 17.75C193.366 18.062 193.305 18.3567 193.253 18.634L192.967 19.752L192.759 20.506C192.707 20.714 192.655 20.8527 192.603 20.922C192.568 20.974 192.508 21 192.421 21H190.887C190.8 21 190.757 20.9653 190.757 20.896C190.757 20.8613 190.792 20.74 190.861 20.532C191 20.2027 191.121 19.8733 191.225 19.544C191.866 17.3947 192.248 15.9907 192.369 15.332C192.525 14.4653 192.846 13.3473 193.331 11.978C193.487 11.3887 193.634 10.8513 193.773 10.366C193.825 10.1233 193.903 9.82865 194.007 9.48198C194.336 8.26865 194.666 7.13332 194.995 6.07599L195.645 3.99598C195.784 3.45865 195.957 2.90398 196.165 2.33198C196.269 2.07198 196.39 2.01132 196.529 2.14998C196.633 2.21932 196.711 2.34065 196.763 2.51398C196.815 2.68732 196.85 2.80865 196.867 2.87798C196.919 3.08598 197.378 4.12598 198.245 5.99798C198.592 6.70865 198.964 7.63598 199.363 8.77998C199.536 9.28265 200.013 10.366 200.793 12.03C201.192 12.8447 201.452 13.408 201.573 13.72C201.85 14.3267 202.596 15.8 203.809 18.14L204.121 18.79C204.52 19.674 204.823 20.2373 205.031 20.48ZM198.219 11.9C198.34 11.8827 198.444 11.874 198.531 11.874C198.618 11.874 198.687 11.8653 198.739 11.848C198.791 11.8307 198.817 11.8047 198.817 11.77C198.817 11.7353 198.791 11.666 198.739 11.562C198.652 11.406 198.453 10.9727 198.141 10.262C197.829 9.53398 197.612 8.98798 197.491 8.62398C197.318 8.20799 197.179 7.86132 197.075 7.58398C196.988 7.30665 196.919 7.11599 196.867 7.01198C196.832 6.92532 196.789 6.83865 196.737 6.75198C196.702 6.66532 196.668 6.59598 196.633 6.54398C196.598 6.49198 196.564 6.46598 196.529 6.46598C196.477 6.46598 196.416 6.59598 196.347 6.85598C196.295 7.11598 196.252 7.31532 196.217 7.45398C195.905 8.45932 195.68 9.22198 195.541 9.74198C195.472 10.002 195.368 10.3227 195.229 10.704C195.108 11.068 195.021 11.3193 194.969 11.458C194.917 11.6313 194.891 11.77 194.891 11.874C194.891 11.978 194.969 12.03 195.125 12.03C195.489 12.03 196.044 12.0213 196.789 12.004C197.552 11.9693 198.028 11.9347 198.219 11.9Z" stroke="#EAEAEA" stroke-width="4" mask="url(#path-1-outside-1_2_11)"/>
</svg>
